<?xml version="1.0" encoding="utf-8" standalone="no"?>
<!DOCTYPE svg PUBLIC "-//W3C//DTD SVG 1.1//EN"
  "http://www.w3.org/Graphics/SVG/1.1/DTD/svg11.dtd">
<!-- Created with matplotlib (http://matplotlib.org/) -->
<svg height="504pt" version="1.1" viewBox="0 0 720 504" width="720pt" xmlns="http://www.w3.org/2000/svg" xmlns:xlink="http://www.w3.org/1999/xlink">
 <defs>
  <style type="text/css">
*{stroke-linecap:butt;stroke-linejoin:round;}
  </style>
 </defs>
 <g id="figure_1">
  <g id="patch_1">
   <path d="M 0 504 
L 720 504 
L 720 0 
L 0 0 
z
" style="fill:#ffffff;"/>
  </g>
  <g id="axes_1">
   <g id="patch_2">
    <path d="M 113.919841 399.6825 
L 643.026766 399.6825 
L 643.026766 61.88 
L 113.919841 61.88 
z
" style="fill:#ffffff;"/>
   </g>
   <g id="matplotlib.axis_1">
    <g id="xtick_1">
     <g id="line2d_1">
      <path clip-path="url(#p8efd930ab2)" d="M 113.919841 399.6825 
L 113.919841 61.88 
" style="fill:none;stroke:#cccccc;stroke-linecap:round;"/>
     </g>
     <g id="text_1">
      <!-- $0$ -->
      <defs>
       <path d="M 42 31.640625 
C 42 37.75 41.90625 48.125 37.703125 56.109375 
C 34 63.109375 28.09375 65.59375 22.90625 65.59375 
C 18.09375 65.59375 12 63.40625 8.203125 56.203125 
C 4.203125 48.71875 3.796875 39.4375 3.796875 31.640625 
C 3.796875 25.953125 3.90625 17.28125 7 9.671875 
C 11.296875 -0.609375 19 -2 22.90625 -2 
C 27.5 -2 34.5 -0.109375 38.59375 9.375 
C 41.59375 16.28125 42 24.359375 42 31.640625 
z
M 22.90625 -0.40625 
C 16.5 -0.40625 12.703125 5.078125 11.296875 12.6875 
C 10.203125 18.5625 10.203125 27.15625 10.203125 32.75 
C 10.203125 40.4375 10.203125 46.828125 11.5 52.921875 
C 13.40625 61.390625 19 64 22.90625 64 
C 27 64 32.296875 61.296875 34.203125 53.125 
C 35.5 47.4375 35.59375 40.734375 35.59375 32.75 
C 35.59375 26.25 35.59375 18.265625 34.40625 12.375 
C 32.296875 1.484375 26.40625 -0.40625 22.90625 -0.40625 
z
" id="CMR17-48"/>
      </defs>
      <g style="fill:#262626;" transform="translate(109.647783 422.120083)scale(0.187 -0.187)">
       <use transform="scale(0.996264)" xlink:href="#CMR17-48"/>
      </g>
     </g>
    </g>
    <g id="xtick_2">
     <g id="line2d_2">
      <path clip-path="url(#p8efd930ab2)" d="M 162.020471 399.6825 
L 162.020471 61.88 
" style="fill:none;stroke:#cccccc;stroke-linecap:round;"/>
     </g>
     <g id="text_2">
      <!-- $5$ -->
      <defs>
       <path d="M 11.40625 57.6875 
C 12.40625 57.28125 16.5 56 20.703125 56 
C 30 56 35.09375 61.109375 38 64.0625 
C 38 64.953125 38 65.5 37.40625 65.5 
C 37.296875 65.5 37.09375 65.5 36.296875 65.046875 
C 32.796875 63.40625 28.703125 62.078125 23.703125 62.078125 
C 20.703125 62.078125 16.203125 62.484375 11.296875 64.671875 
C 10.203125 65.171875 10 65.171875 9.90625 65.171875 
C 9.40625 65.171875 9.296875 65.0625 9.296875 63.078125 
L 9.296875 34.421875 
C 9.296875 32.640625 9.296875 32.140625 10.296875 32.140625 
C 10.796875 32.140625 11 32.34375 11.5 33.03125 
C 14.703125 37.515625 19.09375 39.40625 24.09375 39.40625 
C 27.59375 39.40625 35.09375 37.21875 35.09375 20.140625 
C 35.09375 16.953125 35.09375 11.171875 32.09375 6.578125 
C 29.59375 2.484375 25.703125 0.390625 21.40625 0.390625 
C 14.796875 0.390625 8.09375 5 6.296875 12.71875 
C 6.703125 12.609375 7.5 12.421875 7.90625 12.421875 
C 9.203125 12.421875 11.703125 13.125 11.703125 16.21875 
C 11.703125 18.90625 9.796875 20 7.90625 20 
C 5.59375 20 4.09375 18.59375 4.09375 15.796875 
C 4.09375 7.09375 11 -2 21.59375 -2 
C 31.90625 -2 41.703125 6.875 41.703125 19.75 
C 41.703125 31.71875 33.90625 41 24.203125 41 
C 19.09375 41 14.796875 39.109375 11.40625 35.53125 
z
" id="CMR17-53"/>
      </defs>
      <g style="fill:#262626;" transform="translate(157.748413 422.120083)scale(0.187 -0.187)">
       <use transform="scale(0.996264)" xlink:href="#CMR17-53"/>
      </g>
     </g>
    </g>
    <g id="xtick_3">
     <g id="line2d_3">
      <path clip-path="url(#p8efd930ab2)" d="M 210.1211 399.6825 
L 210.1211 61.88 
" style="fill:none;stroke:#cccccc;stroke-linecap:round;"/>
     </g>
     <g id="text_3">
      <!-- $10$ -->
      <defs>
       <path d="M 26.59375 63.40625 
C 26.59375 65.5 26.5 65.5 25.09375 65.5 
C 21.203125 61.1875 15.296875 59.796875 9.703125 59.796875 
C 9.40625 59.796875 8.90625 59.796875 8.796875 59.5 
C 8.703125 59.296875 8.703125 59.09375 8.703125 57 
C 11.796875 57 17 57.59375 21 59.984375 
L 21 7.203125 
C 21 3.6875 20.796875 2.5 12.203125 2.5 
L 9.203125 2.5 
L 9.203125 0 
C 14 0 19 0 23.796875 0 
C 28.59375 0 33.59375 0 38.40625 0 
L 38.40625 2.5 
L 35.40625 2.5 
C 26.796875 2.5 26.59375 3.59375 26.59375 7.15625 
z
" id="CMR17-49"/>
      </defs>
      <g style="fill:#262626;" transform="translate(201.576984 422.120083)scale(0.187 -0.187)">
       <use transform="scale(0.996264)" xlink:href="#CMR17-49"/>
       <use transform="translate(45.690477 0)scale(0.996264)" xlink:href="#CMR17-48"/>
      </g>
     </g>
    </g>
    <g id="xtick_4">
     <g id="line2d_4">
      <path clip-path="url(#p8efd930ab2)" d="M 258.22173 399.6825 
L 258.22173 61.88 
" style="fill:none;stroke:#cccccc;stroke-linecap:round;"/>
     </g>
     <g id="text_4">
      <!-- $15$ -->
      <g style="fill:#262626;" transform="translate(249.677614 422.120083)scale(0.187 -0.187)">
       <use transform="scale(0.996264)" xlink:href="#CMR17-49"/>
       <use transform="translate(45.690477 0)scale(0.996264)" xlink:href="#CMR17-53"/>
      </g>
     </g>
    </g>
    <g id="xtick_5">
     <g id="line2d_5">
      <path clip-path="url(#p8efd930ab2)" d="M 306.322359 399.6825 
L 306.322359 61.88 
" style="fill:none;stroke:#cccccc;stroke-linecap:round;"/>
     </g>
     <g id="text_5">
      <!-- $20$ -->
      <defs>
       <path d="M 41.703125 15.453125 
L 39.90625 15.453125 
C 38.90625 8.375 38.09375 7.171875 37.703125 6.5625 
C 37.203125 5.765625 30 5.765625 28.59375 5.765625 
L 9.40625 5.765625 
C 13 9.671875 20 16.75 28.5 24.953125 
C 34.59375 30.734375 41.703125 37.53125 41.703125 47.421875 
C 41.703125 59.21875 32.296875 66 21.796875 66 
C 10.796875 66 4.09375 56.3125 4.09375 47.34375 
C 4.09375 43.4375 7 42.9375 8.203125 42.9375 
C 9.203125 42.9375 12.203125 43.546875 12.203125 47.03125 
C 12.203125 50.109375 9.59375 51 8.203125 51 
C 7.59375 51 7 50.90625 6.59375 50.703125 
C 8.5 59.21875 14.296875 63.40625 20.40625 63.40625 
C 29.09375 63.40625 34.796875 56.515625 34.796875 47.421875 
C 34.796875 38.734375 29.703125 31.25 24 24.75 
L 4.09375 2.28125 
L 4.09375 0 
L 39.296875 0 
z
" id="CMR17-50"/>
      </defs>
      <g style="fill:#262626;" transform="translate(297.778243 422.120083)scale(0.187 -0.187)">
       <use transform="scale(0.996264)" xlink:href="#CMR17-50"/>
       <use transform="translate(45.690477 0)scale(0.996264)" xlink:href="#CMR17-48"/>
      </g>
     </g>
    </g>
    <g id="xtick_6">
     <g id="line2d_6">
      <path clip-path="url(#p8efd930ab2)" d="M 354.422989 399.6825 
L 354.422989 61.88 
" style="fill:none;stroke:#cccccc;stroke-linecap:round;"/>
     </g>
     <g id="text_6">
      <!-- $25$ -->
      <g style="fill:#262626;" transform="translate(345.878873 422.120083)scale(0.187 -0.187)">
       <use transform="scale(0.996264)" xlink:href="#CMR17-50"/>
       <use transform="translate(45.690477 0)scale(0.996264)" xlink:href="#CMR17-53"/>
      </g>
     </g>
    </g>
    <g id="xtick_7">
     <g id="line2d_7">
      <path clip-path="url(#p8efd930ab2)" d="M 402.523618 399.6825 
L 402.523618 61.88 
" style="fill:none;stroke:#cccccc;stroke-linecap:round;"/>
     </g>
     <g id="text_7">
      <!-- $30$ -->
      <defs>
       <path d="M 22.09375 33.703125 
C 31 33.703125 34.90625 25.96875 34.90625 17.03125 
C 34.90625 5 28.5 0.390625 22.703125 0.390625 
C 17.40625 0.390625 8.796875 3.03125 6.09375 10.828125 
C 6.59375 10.625 7.09375 10.625 7.59375 10.625 
C 10 10.625 11.796875 12.21875 11.796875 14.8125 
C 11.796875 17.703125 9.59375 19 7.59375 19 
C 5.90625 19 3.296875 18.203125 3.296875 14.46875 
C 3.296875 5.234375 12.296875 -2 22.90625 -2 
C 34 -2 42.5 6.71875 42.5 16.953125 
C 42.5 26.671875 34.5 33.703125 25 34.796875 
C 32.59375 36.375 39.90625 43.0625 39.90625 52.015625 
C 39.90625 59.6875 32 65.296875 23 65.296875 
C 13.90625 65.296875 5.90625 59.828125 5.90625 52.015625 
C 5.90625 48.59375 8.5 48 9.796875 48 
C 11.90625 48 13.703125 49.296875 13.703125 51.890625 
C 13.703125 54.46875 11.90625 55.765625 9.796875 55.765625 
C 9.40625 55.765625 8.90625 55.765625 8.5 55.578125 
C 11.40625 61.859375 19.296875 63 22.796875 63 
C 26.296875 63 32.90625 61.328125 32.90625 51.875 
C 32.90625 49.109375 32.5 44.1875 29.09375 39.84375 
C 26.09375 36 22.703125 36 19.40625 35.6875 
C 18.90625 35.6875 16.59375 35.453125 16.203125 35.453125 
C 15.5 35.359375 15.09375 35.265625 15.09375 34.5 
C 15.09375 33.796875 15.203125 33.703125 17.203125 33.703125 
z
" id="CMR17-51"/>
      </defs>
      <g style="fill:#262626;" transform="translate(393.979502 422.120083)scale(0.187 -0.187)">
       <use transform="scale(0.996264)" xlink:href="#CMR17-51"/>
       <use transform="translate(45.690477 0)scale(0.996264)" xlink:href="#CMR17-48"/>
      </g>
     </g>
    </g>
    <g id="xtick_8">
     <g id="line2d_8">
      <path clip-path="url(#p8efd930ab2)" d="M 450.624248 399.6825 
L 450.624248 61.88 
" style="fill:none;stroke:#cccccc;stroke-linecap:round;"/>
     </g>
     <g id="text_8">
      <!-- $35$ -->
      <g style="fill:#262626;" transform="translate(442.080132 422.120083)scale(0.187 -0.187)">
       <use transform="scale(0.996264)" xlink:href="#CMR17-51"/>
       <use transform="translate(45.690477 0)scale(0.996264)" xlink:href="#CMR17-53"/>
      </g>
     </g>
    </g>
    <g id="xtick_9">
     <g id="line2d_9">
      <path clip-path="url(#p8efd930ab2)" d="M 498.724877 399.6825 
L 498.724877 61.88 
" style="fill:none;stroke:#cccccc;stroke-linecap:round;"/>
     </g>
     <g id="text_9">
      <!-- $40$ -->
      <defs>
       <path d="M 33.59375 64.40625 
C 33.59375 66.5 33.5 66.5 31.703125 66.5 
L 2 19.59375 
L 2 17 
L 27.796875 17 
L 27.796875 7.140625 
C 27.796875 3.5 27.59375 2.5 20.59375 2.5 
L 18.703125 2.5 
L 18.703125 0 
C 21.90625 0 27.296875 0 30.703125 0 
C 34.09375 0 39.5 0 42.703125 0 
L 42.703125 2.5 
L 40.796875 2.5 
C 33.796875 2.5 33.59375 3.5 33.59375 7.140625 
L 33.59375 17 
L 43.796875 17 
L 43.796875 19.59375 
L 33.59375 19.59375 
z
M 28.09375 57.859375 
L 28.09375 19.59375 
L 4 19.59375 
z
" id="CMR17-52"/>
      </defs>
      <g style="fill:#262626;" transform="translate(490.180761 422.120083)scale(0.187 -0.187)">
       <use transform="scale(0.996264)" xlink:href="#CMR17-52"/>
       <use transform="translate(45.690477 0)scale(0.996264)" xlink:href="#CMR17-48"/>
      </g>
     </g>
    </g>
    <g id="xtick_10">
     <g id="line2d_10">
      <path clip-path="url(#p8efd930ab2)" d="M 546.825507 399.6825 
L 546.825507 61.88 
" style="fill:none;stroke:#cccccc;stroke-linecap:round;"/>
     </g>
     <g id="text_10">
      <!-- $45$ -->
      <g style="fill:#262626;" transform="translate(538.281391 422.120083)scale(0.187 -0.187)">
       <use transform="scale(0.996264)" xlink:href="#CMR17-52"/>
       <use transform="translate(45.690477 0)scale(0.996264)" xlink:href="#CMR17-53"/>
      </g>
     </g>
    </g>
    <g id="xtick_11">
     <g id="line2d_11">
      <path clip-path="url(#p8efd930ab2)" d="M 594.926136 399.6825 
L 594.926136 61.88 
" style="fill:none;stroke:#cccccc;stroke-linecap:round;"/>
     </g>
     <g id="text_11">
      <!-- $50$ -->
      <g style="fill:#262626;" transform="translate(586.38202 422.120083)scale(0.187 -0.187)">
       <use transform="scale(0.996264)" xlink:href="#CMR17-53"/>
       <use transform="translate(45.690477 0)scale(0.996264)" xlink:href="#CMR17-48"/>
      </g>
     </g>
    </g>
    <g id="xtick_12">
     <g id="line2d_12">
      <path clip-path="url(#p8efd930ab2)" d="M 643.026766 399.6825 
L 643.026766 61.88 
" style="fill:none;stroke:#cccccc;stroke-linecap:round;"/>
     </g>
     <g id="text_12">
      <!-- $55$ -->
      <g style="fill:#262626;" transform="translate(634.48265 422.120083)scale(0.187 -0.187)">
       <use transform="scale(0.996264)" xlink:href="#CMR17-53"/>
       <use transform="translate(45.690477 0)scale(0.996264)" xlink:href="#CMR17-53"/>
      </g>
     </g>
    </g>
    <g id="text_13">
     <!-- Number of Concurrent Requests -->
     <defs>
      <path d="M 20.5 66.40625 
C 19.796875 67.5 19.703125 67.5 17.796875 67.5 
L 5.09375 67.5 
L 5.09375 65 
L 7 65 
C 11 65 12.796875 64.515625 13.09375 64.40625 
L 13.09375 9.53125 
C 13.09375 7.046875 13.09375 2.390625 5.09375 2.390625 
L 5.09375 -0.203125 
C 7.40625 0 11.59375 0 14.09375 0 
C 16.59375 0 20.796875 0 23.09375 -0.203125 
L 23.09375 2.390625 
C 15.09375 2.390625 15.09375 7.046875 15.09375 9.53125 
L 15.09375 63.015625 
C 15.796875 62.421875 15.796875 62.21875 16.5 61.234375 
L 53.59375 1.1875 
C 54.296875 0 54.59375 0 55.09375 0 
C 56.09375 0 56.09375 0.296875 56.09375 2.171875 
L 56.09375 57.890625 
C 56.09375 60.359375 56.09375 65 64.09375 65 
L 64.09375 67.59375 
C 61.796875 67.5 57.59375 67.5 55.09375 67.5 
C 52.59375 67.5 48.40625 67.5 46.09375 67.59375 
L 46.09375 65 
C 54.09375 65 54.09375 60.34375 54.09375 57.859375 
L 54.09375 11.921875 
z
" id="CMR17-78"/>
      <path d="M 29.40625 42.078125 
L 29.40625 39.5 
C 35.296875 39.5 36.203125 38.890625 36.203125 34.15625 
L 36.203125 16.125 
C 36.203125 7.8125 31.703125 0.59375 24.296875 0.59375 
C 16.09375 0.59375 15.40625 5.4375 15.40625 10.59375 
L 15.40625 43.171875 
L 3.296875 42.078125 
L 3.296875 39.5 
C 7.296875 39.5 10 39.5 10.09375 35.53125 
L 10.09375 16.53125 
C 10.09375 9.890625 10.09375 5.640625 12.703125 2.859375 
C 14 1.578125 16.5 -1 23.703125 -1 
C 32.203125 -1 35.5 5.890625 36.296875 7.90625 
L 36.40625 7.90625 
L 36.40625 -0.984375 
L 48.296875 -0.984375 
L 48.296875 2 
C 42.40625 2 41.5 2.59375 41.5 7.390625 
L 41.5 43.171875 
z
" id="CMR17-117"/>
      <path d="M 67.59375 30.203125 
C 67.59375 35.1875 66.703125 43.59375 54.796875 43.59375 
C 48 43.59375 43.296875 39 41.5 33.609375 
L 41.40625 33.609375 
C 40.203125 41.8125 34.296875 43.59375 28.703125 43.59375 
C 20.796875 43.59375 16.703125 37.5 15.203125 33.5 
L 15.09375 33.5 
L 15.09375 43.59375 
L 3.296875 42.5 
L 3.296875 39.90625 
C 9.203125 39.90625 10.09375 39.296875 10.09375 34.5 
L 10.09375 6.6875 
C 10.09375 2.875 9.703125 2.390625 3.296875 2.390625 
L 3.296875 -0.203125 
C 5.703125 0 10.09375 0 12.703125 0 
C 15.296875 0 19.796875 0 22.203125 -0.203125 
L 22.203125 2.390625 
C 15.796875 2.390625 15.40625 2.78125 15.40625 6.6875 
L 15.40625 25.90625 
C 15.40625 35.109375 21 42 28 42 
C 35.40625 42 36.203125 35.40625 36.203125 30.59375 
L 36.203125 6.6875 
C 36.203125 2.875 35.796875 2.390625 29.40625 2.390625 
L 29.40625 -0.203125 
C 31.796875 0 36.203125 0 38.796875 0 
C 41.40625 0 45.90625 0 48.296875 -0.203125 
L 48.296875 2.390625 
C 41.90625 2.390625 41.5 2.78125 41.5 6.6875 
L 41.5 25.90625 
C 41.5 35.109375 47.09375 42 54.09375 42 
C 61.5 42 62.296875 35.40625 62.296875 30.59375 
L 62.296875 6.6875 
C 62.296875 2.875 61.90625 2.390625 55.5 2.390625 
L 55.5 -0.203125 
C 57.90625 0 62.296875 0 64.90625 0 
C 67.5 0 72 0 74.40625 -0.203125 
L 74.40625 2.390625 
C 68 2.390625 67.59375 2.78125 67.59375 6.6875 
z
" id="CMR17-109"/>
      <path d="M 15 68.6875 
L 3.09375 67.59375 
L 3.09375 65 
C 9 65 9.90625 64.40625 9.90625 59.640625 
L 9.90625 -0.203125 
L 11.703125 -0.203125 
L 14.59375 6.890625 
C 17.5 2.203125 21.796875 -1 27.59375 -1 
C 37.59375 -1 47.703125 7.8125 47.703125 21.40625 
C 47.703125 34.1875 38.703125 43.59375 28.59375 43.59375 
C 22.40625 43.59375 18 40.296875 15 36.40625 
z
M 15.203125 31.3125 
C 15.203125 33.09375 15.203125 33.40625 16.59375 35.5 
C 20.5 41.515625 26.09375 42 28 42 
C 31 42 41.296875 40.390625 41.296875 21.5 
C 41.296875 1.6875 29.5 0.59375 27.09375 0.59375 
C 24 0.59375 19.5 1.78125 16.296875 7.59375 
C 15.203125 9.5 15.203125 9.703125 15.203125 11.484375 
z
" id="CMR17-98"/>
      <path d="M 38.09375 23 
C 38.5 23.40625 38.5 23.609375 38.5 24.625 
C 38.5 34.96875 33.09375 44 21.703125 44 
C 11.09375 44 2.703125 33.890625 2.703125 21.609375 
C 2.703125 8.609375 12.203125 -1 22.796875 -1 
C 34 -1 38.40625 9.484375 38.40625 11.5625 
C 38.40625 12.25 37.796875 12.25 37.59375 12.25 
C 36.90625 12.25 36.796875 12.046875 36.40625 10.875 
C 34.203125 4.140625 28.703125 0.796875 23.5 0.796875 
C 19.203125 0.796875 14.90625 3.171875 12.203125 7.5 
C 9.09375 12.546875 9.09375 18.375 9.09375 23 
z
M 9.203125 24.5 
C 9.90625 39.140625 17.59375 42.40625 21.59375 42.40625 
C 28.40625 42.40625 33 35.890625 33.09375 24.5 
z
" id="CMR17-101"/>
      <path d="M 15 23.390625 
C 15 33 19.09375 42 26.59375 42 
C 27.296875 42 28 41.90625 28.703125 41.59375 
C 28.703125 41.59375 26.5 40.890625 26.5 38.3125 
C 26.5 35.90625 28.40625 34.90625 29.90625 34.90625 
C 31.09375 34.90625 33.296875 35.609375 33.296875 38.40625 
C 33.296875 41.609375 30.09375 43.59375 26.703125 43.59375 
C 19.09375 43.59375 15.796875 36.203125 14.796875 32.703125 
L 14.703125 32.703125 
L 14.703125 43.59375 
L 3.09375 42.5 
L 3.09375 39.90625 
C 9 39.90625 9.90625 39.296875 9.90625 34.5 
L 9.90625 6.6875 
C 9.90625 2.875 9.5 2.390625 3.09375 2.390625 
L 3.09375 -0.203125 
C 5.5 0 10.09375 0 12.703125 0 
C 15.59375 0 20.703125 0 23.40625 -0.203125 
L 23.40625 2.390625 
C 16.203125 2.390625 15 2.390625 15 6.875 
z
" id="CMR17-114"/>
      <path d="M 43.09375 21.1875 
C 43.09375 34 33.796875 44 22.90625 44 
C 12 44 2.703125 34 2.703125 21.1875 
C 2.703125 8.609375 12 -1 22.90625 -1 
C 33.796875 -1 43.09375 8.609375 43.09375 21.1875 
z
M 22.90625 0.796875 
C 18.203125 0.796875 14.203125 3.59375 11.90625 7.5 
C 9.40625 11.984375 9.09375 17.59375 9.09375 22 
C 9.09375 26.203125 9.296875 31.40625 11.90625 35.90625 
C 13.90625 39.203125 17.796875 42.40625 22.90625 42.40625 
C 27.40625 42.40625 31.203125 39.90625 33.59375 36.40625 
C 36.703125 31.703125 36.703125 25.109375 36.703125 22 
C 36.703125 18.09375 36.5 12.109375 33.796875 7.296875 
C 31 2.703125 26.703125 0.796875 22.90625 0.796875 
z
" id="CMR17-111"/>
      <path d="M 15.296875 40 
L 26.703125 40 
L 26.703125 42.578125 
L 15.09375 42.578125 
L 15.09375 54.59375 
C 15.09375 62.84375 19.296875 68 23.59375 68 
C 24.90625 68 26.40625 67.609375 27.40625 66.90625 
C 26.59375 66.703125 24.5 66.015625 24.5 63.546875 
C 24.5 60.953125 26.5 60.15625 27.90625 60.15625 
C 29.296875 60.15625 31.296875 60.953125 31.296875 63.546875 
C 31.296875 67.3125 27.703125 69.59375 23.703125 69.59375 
C 18 69.59375 10.203125 64.9375 10.203125 54.390625 
L 10.203125 42.578125 
L 2.203125 42.578125 
L 2.203125 40 
L 10.203125 40 
L 10.203125 6.671875 
C 10.203125 2.875 9.796875 2.390625 3.40625 2.390625 
L 3.40625 -0.203125 
C 5.796875 0 10.40625 0 13 0 
C 15.90625 0 21 0 23.703125 -0.203125 
L 23.703125 2.390625 
C 16.5 2.390625 15.296875 2.390625 15.296875 6.859375 
z
" id="CMR17-102"/>
      <path d="M 62.09375 67.015625 
C 62.09375 68.796875 62 68.90625 61.40625 68.90625 
C 61 68.90625 60.90625 68.796875 60.203125 67.609375 
L 55.796875 59.25 
C 50.90625 65.421875 44.90625 69 37.203125 69 
C 20.09375 69 4.59375 54 4.59375 33.5625 
C 4.59375 12.90625 20.09375 -2 37.296875 -2 
C 52.59375 -2 62.09375 11.40625 62.09375 22.828125 
C 62.09375 23.8125 62.09375 24.21875 61.203125 24.21875 
C 60.40625 24.21875 60.40625 23.921875 60.296875 23.03125 
C 59.5 9.140625 49.5 0.59375 38.703125 0.59375 
C 28.5 0.59375 12.203125 7.734375 12.203125 33.546875 
C 12.203125 59.453125 28.796875 66.40625 38.5 66.40625 
C 49.796875 66.40625 58 56.6875 59.90625 42.890625 
C 60.09375 41.6875 60.09375 41.484375 61 41.484375 
C 62.09375 41.484375 62.09375 41.6875 62.09375 43.484375 
z
" id="CMR17-67"/>
      <path d="M 41.5 30.203125 
C 41.5 35.296875 40.5 43.59375 28.703125 43.59375 
C 20.796875 43.59375 16.703125 37.5 15.203125 33.5 
L 15.09375 33.5 
L 15.09375 43.59375 
L 3.296875 42.5 
L 3.296875 39.90625 
C 9.203125 39.90625 10.09375 39.296875 10.09375 34.5 
L 10.09375 6.6875 
C 10.09375 2.875 9.703125 2.390625 3.296875 2.390625 
L 3.296875 -0.203125 
C 5.703125 0 10.09375 0 12.703125 0 
C 15.296875 0 19.796875 0 22.203125 -0.203125 
L 22.203125 2.390625 
C 15.796875 2.390625 15.40625 2.78125 15.40625 6.6875 
L 15.40625 25.90625 
C 15.40625 35.109375 21 42 28 42 
C 35.40625 42 36.203125 35.40625 36.203125 30.59375 
L 36.203125 6.6875 
C 36.203125 2.875 35.796875 2.390625 29.40625 2.390625 
L 29.40625 -0.203125 
C 31.796875 0 36.203125 0 38.796875 0 
C 41.40625 0 45.90625 0 48.296875 -0.203125 
L 48.296875 2.390625 
C 41.90625 2.390625 41.5 2.78125 41.5 6.6875 
z
" id="CMR17-110"/>
      <path d="M 34.90625 35 
C 33 35 30.203125 35 30.203125 31.515625 
C 30.203125 28.71875 32.5 27.921875 33.796875 27.921875 
C 34.5 27.921875 37.40625 28.234375 37.40625 31.625 
C 37.40625 38.546875 30.59375 43.796875 22.90625 43.796875 
C 12.296875 43.796875 3.296875 34.03125 3.296875 21.296875 
C 3.296875 8.0625 12.703125 -1 22.90625 -1 
C 35.296875 -1 38.40625 10.578125 38.40625 11.6875 
C 38.40625 12.09375 38.296875 12.390625 37.59375 12.390625 
C 36.90625 12.390625 36.796875 12.296875 36.40625 10.984375 
C 33.796875 2.8125 28.09375 0.796875 23.796875 0.796875 
C 17.40625 0.796875 9.703125 6.671875 9.703125 21.390625 
C 9.703125 36.53125 17.09375 42 23 42 
C 26.90625 42 32.703125 40.203125 34.90625 35 
z
" id="CMR17-99"/>
      <path d="M 15.09375 40 
L 29.09375 40 
L 29.09375 42.578125 
L 15.09375 42.578125 
L 15.09375 61 
L 13.296875 61 
C 13.09375 50.703125 9.59375 41.6875 1.09375 41.6875 
L 1.09375 40 
L 9.796875 40 
L 9.796875 12.046875 
C 9.796875 10.15625 9.796875 -1 21.40625 -1 
C 27.296875 -1 30.703125 4.78125 30.703125 12.140625 
L 30.703125 17.8125 
L 28.90625 17.8125 
L 28.90625 12.234375 
C 28.90625 5.375 26.203125 0.796875 22 0.796875 
C 19.09375 0.796875 15.09375 2.78125 15.09375 11.84375 
z
" id="CMR17-116"/>
      <path d="M 39.203125 33.53125 
C 48.703125 35.4375 56.703125 41.8125 56.703125 49.78125 
C 56.703125 59.140625 46.09375 67.59375 32.09375 67.59375 
L 5.203125 67.59375 
L 5.203125 65 
C 12.09375 65 13.203125 65 13.203125 60.515625 
L 13.203125 6.484375 
C 13.203125 2 12.09375 2 5.203125 2 
L 5.203125 -0.40625 
C 8.09375 -0.40625 13.296875 -0.40625 16.40625 -0.40625 
C 19.5 -0.40625 24.703125 -0.40625 27.59375 -0.40625 
L 27.59375 2 
C 20.703125 2 19.59375 2 19.59375 6.515625 
L 19.59375 33 
L 31.296875 33 
C 37 33 40.203125 30.6875 41.59375 29.390625 
C 45.59375 25.5 45.59375 22.796875 45.59375 16 
C 45.59375 9.296875 45.59375 5.890625 48.59375 2.5 
C 52.40625 -1.59375 57.5 -2 59.703125 -2 
C 67.09375 -2 68.203125 6.1875 68.203125 7.859375 
C 68.203125 8.4375 68.203125 9.140625 67.296875 9.140625 
C 66.5 9.140625 66.40625 8.546875 66.40625 8.15625 
C 65.90625 1.75 63 -0.40625 59.90625 -0.40625 
C 54.40625 -0.40625 53.796875 5.859375 53.203125 11.9375 
C 52.90625 14.03125 52.703125 15.515625 52.5 17.703125 
C 51.90625 22.6875 51.09375 29.953125 39.203125 33.53125 
z
M 31 34.59375 
L 19.59375 34.59375 
L 19.59375 61.140625 
C 19.59375 64.515625 19.796875 65 23.796875 65 
L 31.09375 65 
C 39.40625 65 49.09375 62.140625 49.09375 49.84375 
C 49.09375 37.0625 38.5 34.59375 31 34.59375 
z
" id="CMR17-82"/>
      <path d="M 41.09375 43.78125 
L 39.5 43.78125 
L 36.5 33.9375 
C 34.203125 39.203125 30 43.78125 23.296875 43.78125 
C 13.09375 43.78125 3.296875 34.734375 3.296875 21.609375 
C 3.296875 8.5625 12.5 -0.59375 22.5 -0.59375 
C 30.203125 -0.59375 34.5 5.28125 35.796875 7.46875 
L 35.796875 -12.328125 
C 35.796875 -16.109375 35.40625 -16.609375 29 -16.609375 
L 29 -19.1875 
C 31.40625 -19 35.796875 -19 38.40625 -19 
C 41 -19 45.5 -19 47.90625 -19.1875 
L 47.90625 -16.609375 
C 41.5 -16.609375 41.09375 -16.203125 41.09375 -12.328125 
z
M 36 13.84375 
C 36 9.5625 32.40625 5.578125 32.09375 5.28125 
C 29 1.796875 25.40625 1 23 1 
C 15.5 1 9.703125 10.453125 9.703125 21.484375 
C 9.703125 33.140625 16.296875 42 24 42 
C 32 42 36 32.9375 36 27.765625 
z
" id="CMR17-113"/>
      <path d="M 30.90625 42.140625 
C 30.90625 43.953125 30.796875 44.046875 30.203125 44.046875 
C 29.796875 44.046875 29.703125 43.953125 28.5 42.453125 
C 28.203125 42.046875 27.296875 41.03125 27 40.640625 
C 23.796875 44.046875 19.296875 44.046875 17.59375 44.046875 
C 6.5 44.046875 2.5 38.234375 2.5 32.4375 
C 2.5 23.40625 12.703125 21.328125 15.59375 20.703125 
C 21.90625 19.421875 24.09375 19.015625 26.203125 17.203125 
C 27.5 16.015625 29.703125 13.8125 29.703125 10.21875 
C 29.703125 6 27.296875 0.59375 18.09375 0.59375 
C 9.40625 0.59375 6.296875 7.1875 4.5 15.953125 
C 4.203125 17.34375 4.203125 17.453125 3.40625 17.453125 
C 2.59375 17.453125 2.5 17.34375 2.5 15.359375 
L 2.5 0.984375 
C 2.5 -0.796875 2.59375 -0.90625 3.203125 -0.90625 
C 3.703125 -0.90625 3.796875 -0.796875 4.296875 0 
C 4.90625 0.890625 6.40625 3.296875 7 4.3125 
C 9 1.609375 12.5 -1 18.09375 -1 
C 28 -1 33.296875 4.421875 33.296875 12.25 
C 33.296875 17.375 30.59375 20.078125 29.296875 21.28125 
C 26.296875 24.390625 22.796875 25.09375 18.59375 25.890625 
C 13.09375 27.109375 6.09375 28.515625 6.09375 34.640625 
C 6.09375 37.234375 7.5 42.765625 17.59375 42.765625 
C 28.296875 42.765625 28.90625 32.71875 29.09375 29.5 
C 29.203125 29 29.703125 28.890625 30 28.890625 
C 30.90625 28.890625 30.90625 29.203125 30.90625 30.90625 
z
" id="CMR17-115"/>
     </defs>
     <g style="fill:#262626;" transform="translate(246.804396 443.857523)scale(0.204 -0.204)">
      <use transform="scale(0.996264)" xlink:href="#CMR17-78"/>
      <use transform="translate(69.07243 0)scale(0.996264)" xlink:href="#CMR17-117"/>
      <use transform="translate(119.9678 0)scale(0.996264)" xlink:href="#CMR17-109"/>
      <use transform="translate(194.284936 0)scale(0.996264)" xlink:href="#CMR17-98"/>
      <use transform="translate(247.782744 0)scale(0.996264)" xlink:href="#CMR17-101"/>
      <use transform="translate(288.268404 0)scale(0.996264)" xlink:href="#CMR17-114"/>
      <use transform="translate(353.625139 0)scale(0.996264)" xlink:href="#CMR17-111"/>
      <use transform="translate(399.315616 0)scale(0.996264)" xlink:href="#CMR17-102"/>
      <use transform="translate(456.865095 0)scale(0.996264)" xlink:href="#CMR17-67"/>
      <use transform="translate(523.374975 0)scale(0.996264)" xlink:href="#CMR17-111"/>
      <use transform="translate(569.065452 0)scale(0.996264)" xlink:href="#CMR17-110"/>
      <use transform="translate(619.960822 0)scale(0.996264)" xlink:href="#CMR17-99"/>
      <use transform="translate(660.446482 0)scale(0.996264)" xlink:href="#CMR17-117"/>
      <use transform="translate(711.341852 0)scale(0.996264)" xlink:href="#CMR17-114"/>
      <use transform="translate(746.62262 0)scale(0.996264)" xlink:href="#CMR17-114"/>
      <use transform="translate(781.903388 0)scale(0.996264)" xlink:href="#CMR17-101"/>
      <use transform="translate(822.389048 0)scale(0.996264)" xlink:href="#CMR17-110"/>
      <use transform="translate(870.681964 0)scale(0.996264)" xlink:href="#CMR17-116"/>
      <use transform="translate(936.038698 0)scale(0.996264)" xlink:href="#CMR17-82"/>
      <use transform="translate(1003.8298 0)scale(0.996264)" xlink:href="#CMR17-101"/>
      <use transform="translate(1044.315461 0)scale(0.996264)" xlink:href="#CMR17-113"/>
      <use transform="translate(1092.608377 0)scale(0.996264)" xlink:href="#CMR17-117"/>
      <use transform="translate(1143.503746 0)scale(0.996264)" xlink:href="#CMR17-101"/>
      <use transform="translate(1183.989407 0)scale(0.996264)" xlink:href="#CMR17-115"/>
      <use transform="translate(1219.790744 0)scale(0.996264)" xlink:href="#CMR17-116"/>
      <use transform="translate(1255.071512 0)scale(0.996264)" xlink:href="#CMR17-115"/>
     </g>
    </g>
   </g>
   <g id="matplotlib.axis_2">
    <g id="ytick_1">
     <g id="line2d_13">
      <path clip-path="url(#p8efd930ab2)" d="M 113.919841 399.6825 
L 643.026766 399.6825 
" style="fill:none;stroke:#cccccc;stroke-linecap:round;"/>
     </g>
     <g id="text_14">
      <!-- $0$ -->
      <g style="fill:#262626;" transform="translate(95.875725 406.151292)scale(0.187 -0.187)">
       <use transform="scale(0.996264)" xlink:href="#CMR17-48"/>
      </g>
     </g>
    </g>
    <g id="ytick_2">
     <g id="line2d_14">
      <path clip-path="url(#p8efd930ab2)" d="M 113.919841 343.382083 
L 643.026766 343.382083 
" style="fill:none;stroke:#cccccc;stroke-linecap:round;"/>
     </g>
     <g id="text_15">
      <!-- $5$ -->
      <g style="fill:#262626;" transform="translate(95.875725 349.850875)scale(0.187 -0.187)">
       <use transform="scale(0.996264)" xlink:href="#CMR17-53"/>
      </g>
     </g>
    </g>
    <g id="ytick_3">
     <g id="line2d_15">
      <path clip-path="url(#p8efd930ab2)" d="M 113.919841 287.081667 
L 643.026766 287.081667 
" style="fill:none;stroke:#cccccc;stroke-linecap:round;"/>
     </g>
     <g id="text_16">
      <!-- $10$ -->
      <g style="fill:#262626;" transform="translate(87.331609 293.550458)scale(0.187 -0.187)">
       <use transform="scale(0.996264)" xlink:href="#CMR17-49"/>
       <use transform="translate(45.690477 0)scale(0.996264)" xlink:href="#CMR17-48"/>
      </g>
     </g>
    </g>
    <g id="ytick_4">
     <g id="line2d_16">
      <path clip-path="url(#p8efd930ab2)" d="M 113.919841 230.78125 
L 643.026766 230.78125 
" style="fill:none;stroke:#cccccc;stroke-linecap:round;"/>
     </g>
     <g id="text_17">
      <!-- $15$ -->
      <g style="fill:#262626;" transform="translate(87.331609 237.250042)scale(0.187 -0.187)">
       <use transform="scale(0.996264)" xlink:href="#CMR17-49"/>
       <use transform="translate(45.690477 0)scale(0.996264)" xlink:href="#CMR17-53"/>
      </g>
     </g>
    </g>
    <g id="ytick_5">
     <g id="line2d_17">
      <path clip-path="url(#p8efd930ab2)" d="M 113.919841 174.480833 
L 643.026766 174.480833 
" style="fill:none;stroke:#cccccc;stroke-linecap:round;"/>
     </g>
     <g id="text_18">
      <!-- $20$ -->
      <g style="fill:#262626;" transform="translate(87.331609 180.949625)scale(0.187 -0.187)">
       <use transform="scale(0.996264)" xlink:href="#CMR17-50"/>
       <use transform="translate(45.690477 0)scale(0.996264)" xlink:href="#CMR17-48"/>
      </g>
     </g>
    </g>
    <g id="ytick_6">
     <g id="line2d_18">
      <path clip-path="url(#p8efd930ab2)" d="M 113.919841 118.180417 
L 643.026766 118.180417 
" style="fill:none;stroke:#cccccc;stroke-linecap:round;"/>
     </g>
     <g id="text_19">
      <!-- $25$ -->
      <g style="fill:#262626;" transform="translate(87.331609 124.649208)scale(0.187 -0.187)">
       <use transform="scale(0.996264)" xlink:href="#CMR17-50"/>
       <use transform="translate(45.690477 0)scale(0.996264)" xlink:href="#CMR17-53"/>
      </g>
     </g>
    </g>
    <g id="ytick_7">
     <g id="line2d_19">
      <path clip-path="url(#p8efd930ab2)" d="M 113.919841 61.88 
L 643.026766 61.88 
" style="fill:none;stroke:#cccccc;stroke-linecap:round;"/>
     </g>
     <g id="text_20">
      <!-- $30$ -->
      <g style="fill:#262626;" transform="translate(87.331609 68.348792)scale(0.187 -0.187)">
       <use transform="scale(0.996264)" xlink:href="#CMR17-51"/>
       <use transform="translate(45.690477 0)scale(0.996264)" xlink:href="#CMR17-48"/>
      </g>
     </g>
    </g>
    <g id="text_21">
     <!-- Median Response Time (s) -->
     <defs>
      <path d="M 20.90625 66 
C 20.296875 67.5 20.203125 67.5 18.09375 67.5 
L 5.296875 67.5 
L 5.296875 65 
C 12.203125 65 13.296875 65 13.296875 60.546875 
L 13.296875 9.53125 
C 13.296875 7.046875 13.296875 2.390625 5.296875 2.390625 
L 5.296875 -0.203125 
C 7.59375 0 11.796875 0 14.296875 0 
C 16.796875 0 21 0 23.296875 -0.203125 
L 23.296875 2.390625 
C 15.296875 2.390625 15.296875 7.046875 15.296875 9.53125 
L 15.296875 64.609375 
L 15.40625 64.609375 
L 38.90625 1.390625 
C 39.296875 0.390625 39.5 -0.203125 40.296875 -0.203125 
C 41.09375 -0.203125 41.296875 0.390625 41.703125 1.390625 
L 65.40625 65.09375 
L 65.5 65.09375 
L 65.5 6.84375 
C 65.5 2.390625 64.40625 2.390625 57.5 2.390625 
L 57.5 -0.203125 
C 60.203125 0 65.59375 0 68.5 0 
C 71.40625 0 76.90625 0 79.59375 -0.203125 
L 79.59375 2.390625 
C 72.703125 2.390625 71.59375 2.390625 71.59375 6.84375 
L 71.59375 60.546875 
C 71.59375 65 72.703125 65 79.59375 65 
L 79.59375 67.5 
L 66.90625 67.5 
C 64.796875 67.5 64.703125 67.40625 64.09375 65.90625 
L 42.5 7.84375 
z
" id="CMR17-77"/>
      <path d="M 29.203125 67.59375 
L 29.203125 65 
C 35.09375 65 36 64.40625 36 59.6875 
L 36 36.640625 
C 35.59375 37.140625 31.5 43.59375 23.40625 43.59375 
C 13.203125 43.59375 3.296875 34.5 3.296875 21.3125 
C 3.296875 8.203125 12.59375 -1 22.40625 -1 
C 30.90625 -1 35.296875 5.265625 35.796875 5.9375 
L 35.796875 -0.984375 
L 47.90625 -0.984375 
L 47.90625 2 
C 42 2 41.09375 2.59375 41.09375 7.390625 
L 41.09375 68.6875 
z
M 35.796875 11.796875 
C 35.796875 8.796875 34 6.09375 31.703125 4.09375 
C 28.296875 1.09375 24.90625 0.59375 23 0.59375 
C 20.09375 0.59375 9.703125 2.09375 9.703125 21.1875 
C 9.703125 40.8125 21.296875 42 23.90625 42 
C 28.5 42 32.203125 39.40625 34.5 35.796875 
C 35.796875 33.703125 35.796875 33.40625 35.796875 31.609375 
z
" id="CMR17-100"/>
      <path d="M 15.5 61.078125 
C 15.5 63.265625 13.703125 65.15625 11.40625 65.15625 
C 9.203125 65.15625 7.296875 63.375 7.296875 61.078125 
C 7.296875 58.890625 9.09375 57 11.40625 57 
C 13.59375 57 15.5 58.796875 15.5 61.078125 
z
M 3.796875 42.28125 
L 3.796875 39.703125 
C 9.40625 39.703125 10.203125 39.09375 10.203125 34.328125 
L 10.203125 6.671875 
C 10.203125 2.875 9.796875 2.390625 3.40625 2.390625 
L 3.40625 -0.203125 
C 5.796875 0 10.09375 0 12.59375 0 
C 15 0 19.09375 0 21.40625 -0.203125 
L 21.40625 2.390625 
C 15.5 2.390625 15.296875 2.984375 15.296875 6.5625 
L 15.296875 43.375 
z
" id="CMR17-105"/>
      <path d="M 36 25.828125 
C 36 32.375 36 35.84375 31.796875 39.734375 
C 28.09375 43 23.796875 44 20.40625 44 
C 12.5 44 6.796875 37.609375 6.796875 30.796875 
C 6.796875 27 9.796875 27 10.40625 27 
C 11.703125 27 14 27.78125 14 30.53125 
C 14 33 12.09375 34.078125 10.40625 34.078125 
C 10 34.078125 9.5 33.96875 9.203125 33.875 
C 11.296875 40.5 16.703125 42.40625 20.203125 42.40625 
C 25.203125 42.40625 30.703125 37.953125 30.703125 29.453125 
L 30.703125 25 
C 24.796875 25 17.703125 24.203125 12.09375 21.203125 
C 5.796875 17.703125 4 12.703125 4 8.90625 
C 4 1.203125 13 -1 18.296875 -1 
C 23.796875 -1 28.90625 2.171875 31.09375 7.984375 
C 31.296875 3.640625 34.09375 -0.28125 38.5 -0.28125 
C 40.59375 -0.28125 45.90625 1.09375 45.90625 8.859375 
L 45.90625 14.375 
L 44.09375 14.375 
L 44.09375 8.78125 
C 44.09375 2.78125 41.40625 2 40.09375 2 
C 36 2 36 7.15625 36 11.53125 
z
M 30.703125 13.59375 
C 30.703125 4.953125 24.5 0.59375 19 0.59375 
C 14 0.59375 10.09375 4.296875 10.09375 8.90625 
C 10.09375 11.890625 11.40625 17.1875 17.203125 20.390625 
C 22 23.09375 27.5 23.5 30.703125 23.5 
z
" id="CMR17-97"/>
      <path d="M 22 -16.609375 
C 15.59375 -16.609375 15.203125 -16.203125 15.203125 -12.328125 
L 15.203125 6.28125 
C 18.09375 2.09375 22.296875 -0.59375 27.59375 -0.59375 
C 37.59375 -0.59375 47.703125 8.171875 47.703125 21.6875 
C 47.703125 34.234375 39 43.78125 28.703125 43.78125 
C 22.703125 43.78125 17.796875 40.5 15 36.53125 
L 15 43.78125 
L 3.09375 42.6875 
L 3.09375 40.109375 
C 9 40.109375 9.90625 39.5 9.90625 34.734375 
L 9.90625 -12.328125 
C 9.90625 -16.109375 9.5 -16.609375 3.09375 -16.609375 
L 3.09375 -19.1875 
C 5.5 -19 9.90625 -19 12.5 -19 
C 15.09375 -19 19.59375 -19 22 -19.1875 
z
M 15.203125 31.4375 
C 15.203125 32.84375 15.203125 34.921875 19.09375 38.609375 
C 19.59375 39.015625 23 42 28 42 
C 35.296875 42 41.296875 32.9375 41.296875 21.59375 
C 41.296875 10.25 34.90625 1 27 1 
C 23.40625 1 19.5 2.6875 16.5 7.375 
C 15.203125 9.5625 15.203125 10.15625 15.203125 11.75 
z
" id="CMR17-112"/>
      <path d="M 62.203125 67.59375 
L 4.5 67.59375 
L 2.796875 45.59375 
L 4.59375 45.59375 
C 5.90625 62.125 7.296875 65 22.703125 65 
C 24.5 65 27.40625 65 28.203125 64.90625 
C 30.09375 64.609375 30.09375 63.40625 30.09375 61.125 
L 30.09375 7.171875 
C 30.09375 3.59375 29.796875 2.5 21.5 2.5 
L 18.703125 2.5 
L 18.703125 0 
C 23.5 0 28.5 0 33.40625 0 
C 38.296875 0 43.296875 0 48.09375 0 
L 48.09375 2.5 
L 45.296875 2.5 
C 37 2.5 36.703125 3.59375 36.703125 7.171875 
L 36.703125 61.125 
C 36.703125 63.3125 36.703125 64.515625 38.5 64.90625 
C 39.296875 65 42.203125 65 44 65 
C 59.296875 65 60.796875 62.125 62.09375 45.59375 
L 63.90625 45.59375 
z
" id="CMR17-84"/>
      <path d="M 30.59375 -24.390625 
C 30.59375 -24.296875 30.59375 -24.09375 30.296875 -23.796875 
C 25.703125 -19.125 13.40625 -6.359375 13.40625 24.703125 
C 13.40625 55.765625 25.5 68.421875 30.40625 73.390625 
C 30.40625 73.5 30.59375 73.703125 30.59375 74 
C 30.59375 74.296875 30.296875 74.5 29.90625 74.5 
C 28.796875 74.5 20.296875 67.125 15.40625 56.15625 
C 10.40625 45.109375 9 34.359375 9 24.8125 
C 9 17.625 9.703125 5.484375 15.703125 -7.359375 
C 20.5 -17.734375 28.703125 -25 29.90625 -25 
C 30.40625 -25 30.59375 -24.796875 30.59375 -24.390625 
z
" id="CMR17-40"/>
      <path d="M 26.296875 24.703125 
C 26.296875 31.875 25.59375 44.015625 19.59375 56.859375 
C 14.796875 67.234375 6.59375 74.5 5.40625 74.5 
C 5.09375 74.5 4.703125 74.390625 4.703125 73.890625 
C 4.703125 73.703125 4.796875 73.59375 4.90625 73.390625 
C 9.703125 68.40625 21.90625 55.75 21.90625 24.75 
C 21.90625 -6.359375 9.796875 -19.015625 4.90625 -24.015625 
C 4.796875 -24.203125 4.703125 -24.3125 4.703125 -24.5 
C 4.703125 -25 5.09375 -25 5.40625 -25 
C 6.5 -25 15 -17.625 19.90625 -6.65625 
C 24.90625 4.390625 26.296875 15.140625 26.296875 24.703125 
z
" id="CMR17-41"/>
     </defs>
     <g style="fill:#262626;" transform="translate(78.267667 340.262913)rotate(-90)scale(0.204 -0.204)">
      <use transform="scale(0.996264)" xlink:href="#CMR17-77"/>
      <use transform="translate(84.686941 0)scale(0.996264)" xlink:href="#CMR17-101"/>
      <use transform="translate(125.172601 0)scale(0.996264)" xlink:href="#CMR17-100"/>
      <use transform="translate(176.067971 0)scale(0.996264)" xlink:href="#CMR17-105"/>
      <use transform="translate(200.939029 0)scale(0.996264)" xlink:href="#CMR17-97"/>
      <use transform="translate(246.629506 0)scale(0.996264)" xlink:href="#CMR17-110"/>
      <use transform="translate(327.600843 0)scale(0.996264)" xlink:href="#CMR17-82"/>
      <use transform="translate(395.391945 0)scale(0.996264)" xlink:href="#CMR17-101"/>
      <use transform="translate(435.877605 0)scale(0.996264)" xlink:href="#CMR17-115"/>
      <use transform="translate(471.678943 0)scale(0.996264)" xlink:href="#CMR17-112"/>
      <use transform="translate(525.176751 0)scale(0.996264)" xlink:href="#CMR17-111"/>
      <use transform="translate(570.867228 0)scale(0.996264)" xlink:href="#CMR17-110"/>
      <use transform="translate(621.762598 0)scale(0.996264)" xlink:href="#CMR17-115"/>
      <use transform="translate(657.563936 0)scale(0.996264)" xlink:href="#CMR17-101"/>
      <use transform="translate(728.125562 0)scale(0.996264)" xlink:href="#CMR17-84"/>
      <use transform="translate(794.635443 0)scale(0.996264)" xlink:href="#CMR17-105"/>
      <use transform="translate(819.506501 0)scale(0.996264)" xlink:href="#CMR17-109"/>
      <use transform="translate(896.426091 0)scale(0.996264)" xlink:href="#CMR17-101"/>
      <use transform="translate(966.987718 0)scale(0.996264)" xlink:href="#CMR17-40"/>
      <use transform="translate(1002.268486 0)scale(0.996264)" xlink:href="#CMR17-115"/>
      <use transform="translate(1038.069824 0)scale(0.996264)" xlink:href="#CMR17-41"/>
     </g>
    </g>
   </g>
   <g id="line2d_20">
    <path clip-path="url(#p8efd930ab2)" d="M 162.020471 392.211435 
L 210.1211 391.862372 
L 258.22173 389.492125 
L 306.322359 387.043056 
L 354.422989 385.078172 
L 402.523618 381.835268 
L 450.624248 378.823196 
L 498.724877 375.484581 
L 546.825507 370.817276 
L 594.926136 366.059891 
" style="fill:none;stroke:#4c72b0;stroke-linecap:round;stroke-width:2;"/>
    <defs>
     <path d="M 0 3 
C 0.795609 3 1.55874 2.683901 2.12132 2.12132 
C 2.683901 1.55874 3 0.795609 3 0 
C 3 -0.795609 2.683901 -1.55874 2.12132 -2.12132 
C 1.55874 -2.683901 0.795609 -3 0 -3 
C -0.795609 -3 -1.55874 -2.683901 -2.12132 -2.12132 
C -2.683901 -1.55874 -3 -0.795609 -3 0 
C -3 0.795609 -2.683901 1.55874 -2.12132 2.12132 
C -1.55874 2.683901 -0.795609 3 0 3 
z
" id="m482f18b883" style="stroke:#4c72b0;"/>
    </defs>
    <g clip-path="url(#p8efd930ab2)">
     <use style="fill:#4c72b0;stroke:#4c72b0;" x="162.020471" xlink:href="#m482f18b883" y="392.211435"/>
     <use style="fill:#4c72b0;stroke:#4c72b0;" x="210.1211" xlink:href="#m482f18b883" y="391.862372"/>
     <use style="fill:#4c72b0;stroke:#4c72b0;" x="258.22173" xlink:href="#m482f18b883" y="389.492125"/>
     <use style="fill:#4c72b0;stroke:#4c72b0;" x="306.322359" xlink:href="#m482f18b883" y="387.043056"/>
     <use style="fill:#4c72b0;stroke:#4c72b0;" x="354.422989" xlink:href="#m482f18b883" y="385.078172"/>
     <use style="fill:#4c72b0;stroke:#4c72b0;" x="402.523618" xlink:href="#m482f18b883" y="381.835268"/>
     <use style="fill:#4c72b0;stroke:#4c72b0;" x="450.624248" xlink:href="#m482f18b883" y="378.823196"/>
     <use style="fill:#4c72b0;stroke:#4c72b0;" x="498.724877" xlink:href="#m482f18b883" y="375.484581"/>
     <use style="fill:#4c72b0;stroke:#4c72b0;" x="546.825507" xlink:href="#m482f18b883" y="370.817276"/>
     <use style="fill:#4c72b0;stroke:#4c72b0;" x="594.926136" xlink:href="#m482f18b883" y="366.059891"/>
    </g>
   </g>
   <g id="line2d_21">
    <path clip-path="url(#p8efd930ab2)" d="M 162.020471 393.258622 
L 210.1211 387.735552 
L 258.22173 385.303374 
L 306.322359 383.676292 
L 354.422989 377.623997 
L 402.523618 373.728008 
L 450.624248 370.231752 
L 498.724877 362.935218 
L 546.825507 357.924481 
L 594.926136 349.237327 
" style="fill:none;stroke:#dd8452;stroke-linecap:round;stroke-width:2;"/>
    <defs>
     <path d="M 0 3 
C 0.795609 3 1.55874 2.683901 2.12132 2.12132 
C 2.683901 1.55874 3 0.795609 3 0 
C 3 -0.795609 2.683901 -1.55874 2.12132 -2.12132 
C 1.55874 -2.683901 0.795609 -3 0 -3 
C -0.795609 -3 -1.55874 -2.683901 -2.12132 -2.12132 
C -2.683901 -1.55874 -3 -0.795609 -3 0 
C -3 0.795609 -2.683901 1.55874 -2.12132 2.12132 
C -1.55874 2.683901 -0.795609 3 0 3 
z
" id="m1910b13546" style="stroke:#dd8452;"/>
    </defs>
    <g clip-path="url(#p8efd930ab2)">
     <use style="fill:#dd8452;stroke:#dd8452;" x="162.020471" xlink:href="#m1910b13546" y="393.258622"/>
     <use style="fill:#dd8452;stroke:#dd8452;" x="210.1211" xlink:href="#m1910b13546" y="387.735552"/>
     <use style="fill:#dd8452;stroke:#dd8452;" x="258.22173" xlink:href="#m1910b13546" y="385.303374"/>
     <use style="fill:#dd8452;stroke:#dd8452;" x="306.322359" xlink:href="#m1910b13546" y="383.676292"/>
     <use style="fill:#dd8452;stroke:#dd8452;" x="354.422989" xlink:href="#m1910b13546" y="377.623997"/>
     <use style="fill:#dd8452;stroke:#dd8452;" x="402.523618" xlink:href="#m1910b13546" y="373.728008"/>
     <use style="fill:#dd8452;stroke:#dd8452;" x="450.624248" xlink:href="#m1910b13546" y="370.231752"/>
     <use style="fill:#dd8452;stroke:#dd8452;" x="498.724877" xlink:href="#m1910b13546" y="362.935218"/>
     <use style="fill:#dd8452;stroke:#dd8452;" x="546.825507" xlink:href="#m1910b13546" y="357.924481"/>
     <use style="fill:#dd8452;stroke:#dd8452;" x="594.926136" xlink:href="#m1910b13546" y="349.237327"/>
    </g>
   </g>
   <g id="line2d_22">
    <path clip-path="url(#p8efd930ab2)" d="M 162.020471 373.851869 
L 210.1211 352.485861 
L 258.22173 313.120609 
L 306.322359 317.421961 
L 354.422989 297.159441 
L 402.523618 284.255386 
L 450.624248 258.931458 
L 498.724877 241.151787 
L 546.825507 219.616877 
L 594.926136 206.358129 
" style="fill:none;stroke:#55a868;stroke-linecap:round;stroke-width:2;"/>
    <defs>
     <path d="M 0 3 
C 0.795609 3 1.55874 2.683901 2.12132 2.12132 
C 2.683901 1.55874 3 0.795609 3 0 
C 3 -0.795609 2.683901 -1.55874 2.12132 -2.12132 
C 1.55874 -2.683901 0.795609 -3 0 -3 
C -0.795609 -3 -1.55874 -2.683901 -2.12132 -2.12132 
C -2.683901 -1.55874 -3 -0.795609 -3 0 
C -3 0.795609 -2.683901 1.55874 -2.12132 2.12132 
C -1.55874 2.683901 -0.795609 3 0 3 
z
" id="m6a91092066" style="stroke:#55a868;"/>
    </defs>
    <g clip-path="url(#p8efd930ab2)">
     <use style="fill:#55a868;stroke:#55a868;" x="162.020471" xlink:href="#m6a91092066" y="373.851869"/>
     <use style="fill:#55a868;stroke:#55a868;" x="210.1211" xlink:href="#m6a91092066" y="352.485861"/>
     <use style="fill:#55a868;stroke:#55a868;" x="258.22173" xlink:href="#m6a91092066" y="313.120609"/>
     <use style="fill:#55a868;stroke:#55a868;" x="306.322359" xlink:href="#m6a91092066" y="317.421961"/>
     <use style="fill:#55a868;stroke:#55a868;" x="354.422989" xlink:href="#m6a91092066" y="297.159441"/>
     <use style="fill:#55a868;stroke:#55a868;" x="402.523618" xlink:href="#m6a91092066" y="284.255386"/>
     <use style="fill:#55a868;stroke:#55a868;" x="450.624248" xlink:href="#m6a91092066" y="258.931458"/>
     <use style="fill:#55a868;stroke:#55a868;" x="498.724877" xlink:href="#m6a91092066" y="241.151787"/>
     <use style="fill:#55a868;stroke:#55a868;" x="546.825507" xlink:href="#m6a91092066" y="219.616877"/>
     <use style="fill:#55a868;stroke:#55a868;" x="594.926136" xlink:href="#m6a91092066" y="206.358129"/>
    </g>
   </g>
   <g id="line2d_23">
    <path clip-path="url(#p8efd930ab2)" d="M 162.020471 389.210622 
L 210.1211 388.991051 
L 258.22173 387.093727 
L 306.322359 384.042244 
L 354.422989 385.021871 
L 402.523618 380.70363 
L 450.624248 375.253749 
L 498.724877 375.647852 
L 546.825507 364.804392 
L 594.926136 360.953443 
" style="fill:none;stroke:#c44e52;stroke-linecap:round;stroke-width:2;"/>
    <defs>
     <path d="M 0 3 
C 0.795609 3 1.55874 2.683901 2.12132 2.12132 
C 2.683901 1.55874 3 0.795609 3 0 
C 3 -0.795609 2.683901 -1.55874 2.12132 -2.12132 
C 1.55874 -2.683901 0.795609 -3 0 -3 
C -0.795609 -3 -1.55874 -2.683901 -2.12132 -2.12132 
C -2.683901 -1.55874 -3 -0.795609 -3 0 
C -3 0.795609 -2.683901 1.55874 -2.12132 2.12132 
C -1.55874 2.683901 -0.795609 3 0 3 
z
" id="ma69bab2494" style="stroke:#c44e52;"/>
    </defs>
    <g clip-path="url(#p8efd930ab2)">
     <use style="fill:#c44e52;stroke:#c44e52;" x="162.020471" xlink:href="#ma69bab2494" y="389.210622"/>
     <use style="fill:#c44e52;stroke:#c44e52;" x="210.1211" xlink:href="#ma69bab2494" y="388.991051"/>
     <use style="fill:#c44e52;stroke:#c44e52;" x="258.22173" xlink:href="#ma69bab2494" y="387.093727"/>
     <use style="fill:#c44e52;stroke:#c44e52;" x="306.322359" xlink:href="#ma69bab2494" y="384.042244"/>
     <use style="fill:#c44e52;stroke:#c44e52;" x="354.422989" xlink:href="#ma69bab2494" y="385.021871"/>
     <use style="fill:#c44e52;stroke:#c44e52;" x="402.523618" xlink:href="#ma69bab2494" y="380.70363"/>
     <use style="fill:#c44e52;stroke:#c44e52;" x="450.624248" xlink:href="#ma69bab2494" y="375.253749"/>
     <use style="fill:#c44e52;stroke:#c44e52;" x="498.724877" xlink:href="#ma69bab2494" y="375.647852"/>
     <use style="fill:#c44e52;stroke:#c44e52;" x="546.825507" xlink:href="#ma69bab2494" y="364.804392"/>
     <use style="fill:#c44e52;stroke:#c44e52;" x="594.926136" xlink:href="#ma69bab2494" y="360.953443"/>
    </g>
   </g>
   <g id="line2d_24">
    <path clip-path="url(#p8efd930ab2)" d="M 162.020471 388.658878 
L 210.1211 387.645471 
L 258.22173 383.957794 
L 306.322359 379.45376 
L 354.422989 378.293972 
L 402.523618 372.252937 
L 450.624248 367.461772 
L 498.724877 362.113232 
L 546.825507 356.882923 
L 594.926136 352.024197 
" style="fill:none;stroke:#8172b3;stroke-linecap:round;stroke-width:2;"/>
    <defs>
     <path d="M 0 3 
C 0.795609 3 1.55874 2.683901 2.12132 2.12132 
C 2.683901 1.55874 3 0.795609 3 0 
C 3 -0.795609 2.683901 -1.55874 2.12132 -2.12132 
C 1.55874 -2.683901 0.795609 -3 0 -3 
C -0.795609 -3 -1.55874 -2.683901 -2.12132 -2.12132 
C -2.683901 -1.55874 -3 -0.795609 -3 0 
C -3 0.795609 -2.683901 1.55874 -2.12132 2.12132 
C -1.55874 2.683901 -0.795609 3 0 3 
z
" id="m354e4ae849" style="stroke:#8172b3;"/>
    </defs>
    <g clip-path="url(#p8efd930ab2)">
     <use style="fill:#8172b3;stroke:#8172b3;" x="162.020471" xlink:href="#m354e4ae849" y="388.658878"/>
     <use style="fill:#8172b3;stroke:#8172b3;" x="210.1211" xlink:href="#m354e4ae849" y="387.645471"/>
     <use style="fill:#8172b3;stroke:#8172b3;" x="258.22173" xlink:href="#m354e4ae849" y="383.957794"/>
     <use style="fill:#8172b3;stroke:#8172b3;" x="306.322359" xlink:href="#m354e4ae849" y="379.45376"/>
     <use style="fill:#8172b3;stroke:#8172b3;" x="354.422989" xlink:href="#m354e4ae849" y="378.293972"/>
     <use style="fill:#8172b3;stroke:#8172b3;" x="402.523618" xlink:href="#m354e4ae849" y="372.252937"/>
     <use style="fill:#8172b3;stroke:#8172b3;" x="450.624248" xlink:href="#m354e4ae849" y="367.461772"/>
     <use style="fill:#8172b3;stroke:#8172b3;" x="498.724877" xlink:href="#m354e4ae849" y="362.113232"/>
     <use style="fill:#8172b3;stroke:#8172b3;" x="546.825507" xlink:href="#m354e4ae849" y="356.882923"/>
     <use style="fill:#8172b3;stroke:#8172b3;" x="594.926136" xlink:href="#m354e4ae849" y="352.024197"/>
    </g>
   </g>
   <g id="line2d_25">
    <path clip-path="url(#p8efd930ab2)" d="M 162.020471 379.031507 
L 210.1211 352.125538 
L 258.22173 302.885194 
L 306.322359 306.47716 
L 354.422989 292.548437 
L 402.523618 272.67439 
L 450.624248 257.186145 
L 498.724877 240.464922 
L 546.825507 217.31982 
L 594.926136 197.434513 
" style="fill:none;stroke:#937860;stroke-linecap:round;stroke-width:2;"/>
    <defs>
     <path d="M 0 3 
C 0.795609 3 1.55874 2.683901 2.12132 2.12132 
C 2.683901 1.55874 3 0.795609 3 0 
C 3 -0.795609 2.683901 -1.55874 2.12132 -2.12132 
C 1.55874 -2.683901 0.795609 -3 0 -3 
C -0.795609 -3 -1.55874 -2.683901 -2.12132 -2.12132 
C -2.683901 -1.55874 -3 -0.795609 -3 0 
C -3 0.795609 -2.683901 1.55874 -2.12132 2.12132 
C -1.55874 2.683901 -0.795609 3 0 3 
z
" id="m82b9baae1a" style="stroke:#937860;"/>
    </defs>
    <g clip-path="url(#p8efd930ab2)">
     <use style="fill:#937860;stroke:#937860;" x="162.020471" xlink:href="#m82b9baae1a" y="379.031507"/>
     <use style="fill:#937860;stroke:#937860;" x="210.1211" xlink:href="#m82b9baae1a" y="352.125538"/>
     <use style="fill:#937860;stroke:#937860;" x="258.22173" xlink:href="#m82b9baae1a" y="302.885194"/>
     <use style="fill:#937860;stroke:#937860;" x="306.322359" xlink:href="#m82b9baae1a" y="306.47716"/>
     <use style="fill:#937860;stroke:#937860;" x="354.422989" xlink:href="#m82b9baae1a" y="292.548437"/>
     <use style="fill:#937860;stroke:#937860;" x="402.523618" xlink:href="#m82b9baae1a" y="272.67439"/>
     <use style="fill:#937860;stroke:#937860;" x="450.624248" xlink:href="#m82b9baae1a" y="257.186145"/>
     <use style="fill:#937860;stroke:#937860;" x="498.724877" xlink:href="#m82b9baae1a" y="240.464922"/>
     <use style="fill:#937860;stroke:#937860;" x="546.825507" xlink:href="#m82b9baae1a" y="217.31982"/>
     <use style="fill:#937860;stroke:#937860;" x="594.926136" xlink:href="#m82b9baae1a" y="197.434513"/>
    </g>
   </g>
   <g id="patch_3">
    <path d="M 113.919841 399.6825 
L 113.919841 61.88 
" style="fill:none;stroke:#cccccc;stroke-linecap:square;stroke-linejoin:miter;stroke-width:1.25;"/>
   </g>
   <g id="patch_4">
    <path d="M 643.026766 399.6825 
L 643.026766 61.88 
" style="fill:none;stroke:#cccccc;stroke-linecap:square;stroke-linejoin:miter;stroke-width:1.25;"/>
   </g>
   <g id="patch_5">
    <path d="M 113.919841 399.6825 
L 643.026766 399.6825 
" style="fill:none;stroke:#cccccc;stroke-linecap:square;stroke-linejoin:miter;stroke-width:1.25;"/>
   </g>
   <g id="patch_6">
    <path d="M 113.919841 61.88 
L 643.026766 61.88 
" style="fill:none;stroke:#cccccc;stroke-linecap:square;stroke-linejoin:miter;stroke-width:1.25;"/>
   </g>
   <g id="text_22">
    <!-- Search Response Time Stress Test -->
    <defs>
     <path d="M 43.796875 67.03125 
C 43.796875 68.8125 43.703125 68.921875 43.09375 68.921875 
C 42.5 68.921875 42.296875 68.515625 41.90625 67.625 
L 38.90625 61.046875 
C 35.09375 66.515625 29.296875 69 23 69 
C 12.796875 69 4.59375 60.953125 4.59375 50.828125 
C 4.59375 47.75 5.296875 43.375 8.703125 39.21875 
C 12.40625 34.65625 15.90625 33.859375 23.90625 31.765625 
C 26.90625 30.96875 31.90625 29.671875 32.90625 29.28125 
C 38.59375 26.90625 41.59375 20.953125 41.59375 15.390625 
C 41.59375 8.234375 36.5 0.59375 27.796875 0.59375 
C 17.09375 0.59375 7.09375 6.546875 6.40625 20.484375 
C 6.296875 22.078125 6.203125 22.171875 5.5 22.171875 
C 4.703125 22.171875 4.59375 22.078125 4.59375 20.078125 
L 4.59375 -0.015625 
C 4.59375 -1.796875 4.703125 -1.90625 5.296875 -1.90625 
C 6 -1.90625 6.203125 -1.40625 7.59375 1.6875 
C 7.703125 1.984375 7.703125 2.1875 9.59375 5.953125 
C 14.59375 -0.609375 23 -2 27.796875 -2 
C 38.703125 -2 46.40625 7.046875 46.40625 17.5625 
C 46.40625 22.71875 44.5 26.6875 43.40625 28.484375 
C 39.203125 34.84375 34.703125 36.03125 29.90625 37.21875 
C 29.203125 37.53125 29 37.53125 23.40625 38.90625 
C 18 40.296875 15.703125 41 13.203125 43.6875 
C 10.40625 46.75 9.40625 49.9375 9.40625 53.109375 
C 9.40625 59.5625 14.59375 66.609375 23.09375 66.609375 
C 33.703125 66.609375 40.296875 59.15625 41.796875 46.765625 
C 42.09375 44.96875 42.203125 44.875 42.90625 44.875 
C 43.796875 44.875 43.796875 45.171875 43.796875 46.859375 
z
" id="CMR17-83"/>
     <path d="M 41.5 30.203125 
C 41.5 35.296875 40.5 43.59375 28.703125 43.59375 
C 20.5 43.59375 16.5 37 15.296875 33.703125 
L 15.203125 33.703125 
L 15.203125 68.6875 
L 3.296875 67.59375 
L 3.296875 65 
C 9.203125 65 10.09375 64.40625 10.09375 59.640625 
L 10.09375 6.65625 
C 10.09375 2.875 9.703125 2.390625 3.296875 2.390625 
L 3.296875 -0.203125 
C 5.703125 0 10.09375 0 12.703125 0 
C 15.296875 0 19.796875 0 22.203125 -0.203125 
L 22.203125 2.390625 
C 15.796875 2.390625 15.40625 2.78125 15.40625 6.6875 
L 15.40625 25.90625 
C 15.40625 35.109375 21 42 28 42 
C 35.40625 42 36.203125 35.40625 36.203125 30.59375 
L 36.203125 6.6875 
C 36.203125 2.875 35.796875 2.390625 29.40625 2.390625 
L 29.40625 -0.203125 
C 31.796875 0 36.203125 0 38.796875 0 
C 41.40625 0 45.90625 0 48.296875 -0.203125 
L 48.296875 2.390625 
C 41.90625 2.390625 41.5 2.78125 41.5 6.6875 
z
" id="CMR17-104"/>
    </defs>
    <g style="fill:#262626;" transform="translate(239.295939 55.88)scale(0.204 -0.204)">
     <use transform="scale(0.996264)" xlink:href="#CMR17-83"/>
     <use transform="translate(50.89537 0)scale(0.996264)" xlink:href="#CMR17-101"/>
     <use transform="translate(91.38103 0)scale(0.996264)" xlink:href="#CMR17-97"/>
     <use transform="translate(137.071507 0)scale(0.996264)" xlink:href="#CMR17-114"/>
     <use transform="translate(172.352275 0)scale(0.996264)" xlink:href="#CMR17-99"/>
     <use transform="translate(210.235482 0)scale(0.996264)" xlink:href="#CMR17-104"/>
     <use transform="translate(291.206818 0)scale(0.996264)" xlink:href="#CMR17-82"/>
     <use transform="translate(358.99792 0)scale(0.996264)" xlink:href="#CMR17-101"/>
     <use transform="translate(399.48358 0)scale(0.996264)" xlink:href="#CMR17-115"/>
     <use transform="translate(435.284918 0)scale(0.996264)" xlink:href="#CMR17-112"/>
     <use transform="translate(488.782726 0)scale(0.996264)" xlink:href="#CMR17-111"/>
     <use transform="translate(534.473204 0)scale(0.996264)" xlink:href="#CMR17-110"/>
     <use transform="translate(585.368573 0)scale(0.996264)" xlink:href="#CMR17-115"/>
     <use transform="translate(621.169911 0)scale(0.996264)" xlink:href="#CMR17-101"/>
     <use transform="translate(691.731538 0)scale(0.996264)" xlink:href="#CMR17-84"/>
     <use transform="translate(758.241418 0)scale(0.996264)" xlink:href="#CMR17-105"/>
     <use transform="translate(783.112477 0)scale(0.996264)" xlink:href="#CMR17-109"/>
     <use transform="translate(860.032067 0)scale(0.996264)" xlink:href="#CMR17-101"/>
     <use transform="translate(930.593693 0)scale(0.996264)" xlink:href="#CMR17-83"/>
     <use transform="translate(981.489063 0)scale(0.996264)" xlink:href="#CMR17-116"/>
     <use transform="translate(1016.769831 0)scale(0.996264)" xlink:href="#CMR17-114"/>
     <use transform="translate(1052.050599 0)scale(0.996264)" xlink:href="#CMR17-101"/>
     <use transform="translate(1092.536259 0)scale(0.996264)" xlink:href="#CMR17-115"/>
     <use transform="translate(1128.337597 0)scale(0.996264)" xlink:href="#CMR17-115"/>
     <use transform="translate(1194.214901 0)scale(0.996264)" xlink:href="#CMR17-84"/>
     <use transform="translate(1252.917526 0)scale(0.996264)" xlink:href="#CMR17-101"/>
     <use transform="translate(1293.403187 0)scale(0.996264)" xlink:href="#CMR17-115"/>
     <use transform="translate(1329.204524 0)scale(0.996264)" xlink:href="#CMR17-116"/>
    </g>
   </g>
   <g id="legend_1">
    <g id="patch_7">
     <path d="M 125.819841 217.645722 
L 494.870711 217.645722 
Q 498.270711 217.645722 498.270711 214.245722 
L 498.270711 73.78 
Q 498.270711 70.38 494.870711 70.38 
L 125.819841 70.38 
Q 122.419841 70.38 122.419841 73.78 
L 122.419841 214.245722 
Q 122.419841 217.645722 125.819841 217.645722 
z
" style="fill:#ffffff;opacity:0.8;stroke:#cccccc;stroke-linejoin:miter;"/>
    </g>
    <g id="line2d_26">
     <path d="M 129.219841 83.13 
L 163.219841 83.13 
" style="fill:none;stroke:#4c72b0;stroke-linecap:round;stroke-width:2;"/>
    </g>
    <g id="line2d_27">
     <g>
      <use style="fill:#4c72b0;stroke:#4c72b0;" x="146.219841" xlink:href="#m482f18b883" y="83.13"/>
     </g>
    </g>
    <g id="text_23">
     <!-- 100 resources, without server authentication -->
     <defs>
      <path d="M 15.796875 1.59375 
C 16 0.703125 16 0.390625 16 -1.203125 
C 16 -7.234375 14 -12.765625 9.796875 -17.796875 
C 9.296875 -18.28125 9.296875 -18.484375 9.296875 -18.703125 
C 9.296875 -19.09375 9.703125 -19.5 10.09375 -19.5 
C 10.703125 -19.5 17.59375 -12.484375 17.59375 -1.359375 
C 17.59375 1.9375 17.203125 8.15625 12.5 8.15625 
C 10.296875 8.15625 8.40625 6.671875 8.40625 4.078125 
C 8.40625 1.5 10.296875 0 12.5 0 
C 13.703125 0 15 0.5 15.796875 1.59375 
z
" id="CMR17-44"/>
      <path d="M 58.203125 34.109375 
C 60.203125 40 64.203125 40 65.703125 40 
L 65.703125 42.6875 
C 63.703125 42.6875 61.703125 42.6875 59.703125 42.6875 
C 57.796875 42.6875 53.5 42.6875 51.796875 42.78125 
L 51.796875 40 
C 54.90625 40 56.59375 38.203125 56.59375 35.71875 
C 56.59375 35.015625 56.40625 34.125 56.203125 33.4375 
L 46.796875 6.359375 
L 36.59375 35.546875 
C 36.40625 36.234375 36.09375 37.03125 36.09375 37.421875 
C 36.09375 40 39.5 40 41.09375 40 
L 41.09375 42.78125 
C 38.796875 42.6875 34.59375 42.6875 32.203125 42.6875 
C 29.703125 42.6875 27.09375 42.6875 24.796875 42.78125 
L 24.796875 40 
C 30.296875 40 30.296875 39.796875 32.40625 33.578125 
L 23.203125 7.046875 
L 13.296875 35.640625 
C 12.796875 36.921875 12.796875 37.125 12.796875 37.421875 
C 12.796875 40 16.203125 40 17.796875 40 
L 17.796875 42.78125 
C 15.40625 42.6875 11.203125 42.6875 8.703125 42.6875 
C 6.5 42.6875 3.09375 42.6875 1 42.78125 
L 1 40 
C 5.40625 40 6.5 39.703125 7.59375 36.421875 
L 19.90625 0.765625 
C 20.296875 -0.515625 20.59375 -0.8125 21.40625 -0.8125 
C 22.09375 -0.8125 22.5 -0.609375 23 0.875 
L 33.296875 30.9375 
L 43.703125 0.875 
C 44.203125 -0.609375 44.59375 -0.8125 45.296875 -0.8125 
C 46.09375 -0.8125 46.40625 -0.515625 46.796875 0.78125 
z
" id="CMR17-119"/>
      <path d="M 39.09375 33.796875 
C 40 36 41.59375 40 47.40625 40 
L 47.40625 42.59375 
C 45.5 42.59375 43 42.59375 41.09375 42.59375 
C 39 42.59375 35.703125 42.59375 33.703125 42.6875 
L 33.703125 40.09375 
C 36.203125 39.890625 37.59375 38.703125 37.59375 36.109375 
C 37.59375 35.203125 37.59375 35 37 33.609375 
L 26 5.890625 
L 14.09375 35.71875 
C 13.5 37.015625 13.5 37.203125 13.5 37.609375 
C 13.5 40 16.796875 40 18.296875 40 
L 18.296875 42.6875 
C 15.90625 42.59375 11.5 42.59375 9 42.59375 
C 6.296875 42.59375 3.203125 42.59375 1 42.6875 
L 1 40 
C 4.796875 40 6.90625 40 8.09375 36.90625 
L 22.59375 0.6875 
C 23.203125 -0.796875 23.296875 -1 24.203125 -1 
C 25.09375 -1 25.203125 -0.796875 25.796875 0.6875 
z
" id="CMR17-118"/>
     </defs>
     <g style="fill:#262626;" transform="translate(176.819841 89.08)scale(0.17 -0.17)">
      <use transform="scale(0.996264)" xlink:href="#CMR17-49"/>
      <use transform="translate(45.690477 0)scale(0.996264)" xlink:href="#CMR17-48"/>
      <use transform="translate(91.380954 0)scale(0.996264)" xlink:href="#CMR17-48"/>
      <use transform="translate(167.147398 0)scale(0.996264)" xlink:href="#CMR17-114"/>
      <use transform="translate(202.428165 0)scale(0.996264)" xlink:href="#CMR17-101"/>
      <use transform="translate(242.913826 0)scale(0.996264)" xlink:href="#CMR17-115"/>
      <use transform="translate(278.715164 0)scale(0.996264)" xlink:href="#CMR17-111"/>
      <use transform="translate(324.405641 0)scale(0.996264)" xlink:href="#CMR17-117"/>
      <use transform="translate(375.30101 0)scale(0.996264)" xlink:href="#CMR17-114"/>
      <use transform="translate(410.581778 0)scale(0.996264)" xlink:href="#CMR17-99"/>
      <use transform="translate(451.067439 0)scale(0.996264)" xlink:href="#CMR17-101"/>
      <use transform="translate(491.553099 0)scale(0.996264)" xlink:href="#CMR17-115"/>
      <use transform="translate(527.354437 0)scale(0.996264)" xlink:href="#CMR17-44"/>
      <use transform="translate(582.301462 0)scale(0.996264)" xlink:href="#CMR17-119"/>
      <use transform="translate(648.811342 0)scale(0.996264)" xlink:href="#CMR17-105"/>
      <use transform="translate(673.682401 0)scale(0.996264)" xlink:href="#CMR17-116"/>
      <use transform="translate(708.963169 0)scale(0.996264)" xlink:href="#CMR17-104"/>
      <use transform="translate(759.858538 0)scale(0.996264)" xlink:href="#CMR17-111"/>
      <use transform="translate(805.549015 0)scale(0.996264)" xlink:href="#CMR17-117"/>
      <use transform="translate(856.444385 0)scale(0.996264)" xlink:href="#CMR17-116"/>
      <use transform="translate(921.801119 0)scale(0.996264)" xlink:href="#CMR17-115"/>
      <use transform="translate(957.602457 0)scale(0.996264)" xlink:href="#CMR17-101"/>
      <use transform="translate(998.088117 0)scale(0.996264)" xlink:href="#CMR17-114"/>
      <use transform="translate(1033.368885 0)scale(0.996264)" xlink:href="#CMR17-118"/>
      <use transform="translate(1079.059347 0)scale(0.996264)" xlink:href="#CMR17-101"/>
      <use transform="translate(1119.545008 0)scale(0.996264)" xlink:href="#CMR17-114"/>
      <use transform="translate(1184.901742 0)scale(0.996264)" xlink:href="#CMR17-97"/>
      <use transform="translate(1230.592219 0)scale(0.996264)" xlink:href="#CMR17-117"/>
      <use transform="translate(1281.487589 0)scale(0.996264)" xlink:href="#CMR17-116"/>
      <use transform="translate(1316.768356 0)scale(0.996264)" xlink:href="#CMR17-104"/>
      <use transform="translate(1367.663726 0)scale(0.996264)" xlink:href="#CMR17-101"/>
      <use transform="translate(1408.149387 0)scale(0.996264)" xlink:href="#CMR17-110"/>
      <use transform="translate(1456.442303 0)scale(0.996264)" xlink:href="#CMR17-116"/>
      <use transform="translate(1491.72307 0)scale(0.996264)" xlink:href="#CMR17-105"/>
      <use transform="translate(1516.594129 0)scale(0.996264)" xlink:href="#CMR17-99"/>
      <use transform="translate(1557.079789 0)scale(0.996264)" xlink:href="#CMR17-97"/>
      <use transform="translate(1602.770266 0)scale(0.996264)" xlink:href="#CMR17-116"/>
      <use transform="translate(1638.051034 0)scale(0.996264)" xlink:href="#CMR17-105"/>
      <use transform="translate(1662.922093 0)scale(0.996264)" xlink:href="#CMR17-111"/>
      <use transform="translate(1708.61257 0)scale(0.996264)" xlink:href="#CMR17-110"/>
     </g>
    </g>
    <g id="line2d_28">
     <path d="M 129.219841 106.824287 
L 163.219841 106.824287 
" style="fill:none;stroke:#dd8452;stroke-linecap:round;stroke-width:2;"/>
    </g>
    <g id="line2d_29">
     <g>
      <use style="fill:#dd8452;stroke:#dd8452;" x="146.219841" xlink:href="#m1910b13546" y="106.824287"/>
     </g>
    </g>
    <g id="text_24">
     <!-- 1000 resources, without server authentication -->
     <g style="fill:#262626;" transform="translate(176.819841 112.774287)scale(0.17 -0.17)">
      <use transform="scale(0.996264)" xlink:href="#CMR17-49"/>
      <use transform="translate(45.690477 0)scale(0.996264)" xlink:href="#CMR17-48"/>
      <use transform="translate(91.380954 0)scale(0.996264)" xlink:href="#CMR17-48"/>
      <use transform="translate(137.071431 0)scale(0.996264)" xlink:href="#CMR17-48"/>
      <use transform="translate(212.837875 0)scale(0.996264)" xlink:href="#CMR17-114"/>
      <use transform="translate(248.118643 0)scale(0.996264)" xlink:href="#CMR17-101"/>
      <use transform="translate(288.604303 0)scale(0.996264)" xlink:href="#CMR17-115"/>
      <use transform="translate(324.405641 0)scale(0.996264)" xlink:href="#CMR17-111"/>
      <use transform="translate(370.096118 0)scale(0.996264)" xlink:href="#CMR17-117"/>
      <use transform="translate(420.991488 0)scale(0.996264)" xlink:href="#CMR17-114"/>
      <use transform="translate(456.272255 0)scale(0.996264)" xlink:href="#CMR17-99"/>
      <use transform="translate(496.757916 0)scale(0.996264)" xlink:href="#CMR17-101"/>
      <use transform="translate(537.243576 0)scale(0.996264)" xlink:href="#CMR17-115"/>
      <use transform="translate(573.044914 0)scale(0.996264)" xlink:href="#CMR17-44"/>
      <use transform="translate(627.991939 0)scale(0.996264)" xlink:href="#CMR17-119"/>
      <use transform="translate(694.501819 0)scale(0.996264)" xlink:href="#CMR17-105"/>
      <use transform="translate(719.372878 0)scale(0.996264)" xlink:href="#CMR17-116"/>
      <use transform="translate(754.653646 0)scale(0.996264)" xlink:href="#CMR17-104"/>
      <use transform="translate(805.549015 0)scale(0.996264)" xlink:href="#CMR17-111"/>
      <use transform="translate(851.239493 0)scale(0.996264)" xlink:href="#CMR17-117"/>
      <use transform="translate(902.134862 0)scale(0.996264)" xlink:href="#CMR17-116"/>
      <use transform="translate(967.491596 0)scale(0.996264)" xlink:href="#CMR17-115"/>
      <use transform="translate(1003.292934 0)scale(0.996264)" xlink:href="#CMR17-101"/>
      <use transform="translate(1043.778595 0)scale(0.996264)" xlink:href="#CMR17-114"/>
      <use transform="translate(1079.059362 0)scale(0.996264)" xlink:href="#CMR17-118"/>
      <use transform="translate(1124.749824 0)scale(0.996264)" xlink:href="#CMR17-101"/>
      <use transform="translate(1165.235485 0)scale(0.996264)" xlink:href="#CMR17-114"/>
      <use transform="translate(1230.592219 0)scale(0.996264)" xlink:href="#CMR17-97"/>
      <use transform="translate(1276.282696 0)scale(0.996264)" xlink:href="#CMR17-117"/>
      <use transform="translate(1327.178066 0)scale(0.996264)" xlink:href="#CMR17-116"/>
      <use transform="translate(1362.458834 0)scale(0.996264)" xlink:href="#CMR17-104"/>
      <use transform="translate(1413.354203 0)scale(0.996264)" xlink:href="#CMR17-101"/>
      <use transform="translate(1453.839864 0)scale(0.996264)" xlink:href="#CMR17-110"/>
      <use transform="translate(1502.13278 0)scale(0.996264)" xlink:href="#CMR17-116"/>
      <use transform="translate(1537.413547 0)scale(0.996264)" xlink:href="#CMR17-105"/>
      <use transform="translate(1562.284606 0)scale(0.996264)" xlink:href="#CMR17-99"/>
      <use transform="translate(1602.770266 0)scale(0.996264)" xlink:href="#CMR17-97"/>
      <use transform="translate(1648.460744 0)scale(0.996264)" xlink:href="#CMR17-116"/>
      <use transform="translate(1683.741511 0)scale(0.996264)" xlink:href="#CMR17-105"/>
      <use transform="translate(1708.61257 0)scale(0.996264)" xlink:href="#CMR17-111"/>
      <use transform="translate(1754.303047 0)scale(0.996264)" xlink:href="#CMR17-110"/>
     </g>
    </g>
    <g id="line2d_30">
     <path d="M 129.219841 130.518574 
L 163.219841 130.518574 
" style="fill:none;stroke:#55a868;stroke-linecap:round;stroke-width:2;"/>
    </g>
    <g id="line2d_31">
     <g>
      <use style="fill:#55a868;stroke:#55a868;" x="146.219841" xlink:href="#m6a91092066" y="130.518574"/>
     </g>
    </g>
    <g id="text_25">
     <!-- 10000 resources, without server authentication -->
     <g style="fill:#262626;" transform="translate(176.819841 136.468574)scale(0.17 -0.17)">
      <use transform="scale(0.996264)" xlink:href="#CMR17-49"/>
      <use transform="translate(45.690477 0)scale(0.996264)" xlink:href="#CMR17-48"/>
      <use transform="translate(91.380954 0)scale(0.996264)" xlink:href="#CMR17-48"/>
      <use transform="translate(137.071431 0)scale(0.996264)" xlink:href="#CMR17-48"/>
      <use transform="translate(182.761908 0)scale(0.996264)" xlink:href="#CMR17-48"/>
      <use transform="translate(258.528352 0)scale(0.996264)" xlink:href="#CMR17-114"/>
      <use transform="translate(293.80912 0)scale(0.996264)" xlink:href="#CMR17-101"/>
      <use transform="translate(334.29478 0)scale(0.996264)" xlink:href="#CMR17-115"/>
      <use transform="translate(370.096118 0)scale(0.996264)" xlink:href="#CMR17-111"/>
      <use transform="translate(415.786595 0)scale(0.996264)" xlink:href="#CMR17-117"/>
      <use transform="translate(466.681965 0)scale(0.996264)" xlink:href="#CMR17-114"/>
      <use transform="translate(501.962733 0)scale(0.996264)" xlink:href="#CMR17-99"/>
      <use transform="translate(542.448393 0)scale(0.996264)" xlink:href="#CMR17-101"/>
      <use transform="translate(582.934053 0)scale(0.996264)" xlink:href="#CMR17-115"/>
      <use transform="translate(618.735391 0)scale(0.996264)" xlink:href="#CMR17-44"/>
      <use transform="translate(673.682416 0)scale(0.996264)" xlink:href="#CMR17-119"/>
      <use transform="translate(740.192296 0)scale(0.996264)" xlink:href="#CMR17-105"/>
      <use transform="translate(765.063355 0)scale(0.996264)" xlink:href="#CMR17-116"/>
      <use transform="translate(800.344123 0)scale(0.996264)" xlink:href="#CMR17-104"/>
      <use transform="translate(851.239493 0)scale(0.996264)" xlink:href="#CMR17-111"/>
      <use transform="translate(896.92997 0)scale(0.996264)" xlink:href="#CMR17-117"/>
      <use transform="translate(947.825339 0)scale(0.996264)" xlink:href="#CMR17-116"/>
      <use transform="translate(1013.182074 0)scale(0.996264)" xlink:href="#CMR17-115"/>
      <use transform="translate(1048.983411 0)scale(0.996264)" xlink:href="#CMR17-101"/>
      <use transform="translate(1089.469072 0)scale(0.996264)" xlink:href="#CMR17-114"/>
      <use transform="translate(1124.749839 0)scale(0.996264)" xlink:href="#CMR17-118"/>
      <use transform="translate(1170.440301 0)scale(0.996264)" xlink:href="#CMR17-101"/>
      <use transform="translate(1210.925962 0)scale(0.996264)" xlink:href="#CMR17-114"/>
      <use transform="translate(1276.282696 0)scale(0.996264)" xlink:href="#CMR17-97"/>
      <use transform="translate(1321.973173 0)scale(0.996264)" xlink:href="#CMR17-117"/>
      <use transform="translate(1372.868543 0)scale(0.996264)" xlink:href="#CMR17-116"/>
      <use transform="translate(1408.149311 0)scale(0.996264)" xlink:href="#CMR17-104"/>
      <use transform="translate(1459.04468 0)scale(0.996264)" xlink:href="#CMR17-101"/>
      <use transform="translate(1499.530341 0)scale(0.996264)" xlink:href="#CMR17-110"/>
      <use transform="translate(1547.823257 0)scale(0.996264)" xlink:href="#CMR17-116"/>
      <use transform="translate(1583.104025 0)scale(0.996264)" xlink:href="#CMR17-105"/>
      <use transform="translate(1607.975083 0)scale(0.996264)" xlink:href="#CMR17-99"/>
      <use transform="translate(1648.460744 0)scale(0.996264)" xlink:href="#CMR17-97"/>
      <use transform="translate(1694.151221 0)scale(0.996264)" xlink:href="#CMR17-116"/>
      <use transform="translate(1729.431988 0)scale(0.996264)" xlink:href="#CMR17-105"/>
      <use transform="translate(1754.303047 0)scale(0.996264)" xlink:href="#CMR17-111"/>
      <use transform="translate(1799.993524 0)scale(0.996264)" xlink:href="#CMR17-110"/>
     </g>
    </g>
    <g id="line2d_32">
     <path d="M 129.219841 154.212861 
L 163.219841 154.212861 
" style="fill:none;stroke:#c44e52;stroke-linecap:round;stroke-width:2;"/>
    </g>
    <g id="line2d_33">
     <g>
      <use style="fill:#c44e52;stroke:#c44e52;" x="146.219841" xlink:href="#ma69bab2494" y="154.212861"/>
     </g>
    </g>
    <g id="text_26">
     <!-- 100 resources, with server authentication -->
     <g style="fill:#262626;" transform="translate(176.819841 160.162861)scale(0.17 -0.17)">
      <use transform="scale(0.996264)" xlink:href="#CMR17-49"/>
      <use transform="translate(45.690477 0)scale(0.996264)" xlink:href="#CMR17-48"/>
      <use transform="translate(91.380954 0)scale(0.996264)" xlink:href="#CMR17-48"/>
      <use transform="translate(167.147398 0)scale(0.996264)" xlink:href="#CMR17-114"/>
      <use transform="translate(202.428165 0)scale(0.996264)" xlink:href="#CMR17-101"/>
      <use transform="translate(242.913826 0)scale(0.996264)" xlink:href="#CMR17-115"/>
      <use transform="translate(278.715164 0)scale(0.996264)" xlink:href="#CMR17-111"/>
      <use transform="translate(324.405641 0)scale(0.996264)" xlink:href="#CMR17-117"/>
      <use transform="translate(375.30101 0)scale(0.996264)" xlink:href="#CMR17-114"/>
      <use transform="translate(410.581778 0)scale(0.996264)" xlink:href="#CMR17-99"/>
      <use transform="translate(451.067439 0)scale(0.996264)" xlink:href="#CMR17-101"/>
      <use transform="translate(491.553099 0)scale(0.996264)" xlink:href="#CMR17-115"/>
      <use transform="translate(527.354437 0)scale(0.996264)" xlink:href="#CMR17-44"/>
      <use transform="translate(582.301462 0)scale(0.996264)" xlink:href="#CMR17-119"/>
      <use transform="translate(648.811342 0)scale(0.996264)" xlink:href="#CMR17-105"/>
      <use transform="translate(673.682401 0)scale(0.996264)" xlink:href="#CMR17-116"/>
      <use transform="translate(708.963169 0)scale(0.996264)" xlink:href="#CMR17-104"/>
      <use transform="translate(789.934505 0)scale(0.996264)" xlink:href="#CMR17-115"/>
      <use transform="translate(825.735842 0)scale(0.996264)" xlink:href="#CMR17-101"/>
      <use transform="translate(866.221503 0)scale(0.996264)" xlink:href="#CMR17-114"/>
      <use transform="translate(901.502271 0)scale(0.996264)" xlink:href="#CMR17-118"/>
      <use transform="translate(947.192732 0)scale(0.996264)" xlink:href="#CMR17-101"/>
      <use transform="translate(987.678393 0)scale(0.996264)" xlink:href="#CMR17-114"/>
      <use transform="translate(1053.035127 0)scale(0.996264)" xlink:href="#CMR17-97"/>
      <use transform="translate(1098.725604 0)scale(0.996264)" xlink:href="#CMR17-117"/>
      <use transform="translate(1149.620974 0)scale(0.996264)" xlink:href="#CMR17-116"/>
      <use transform="translate(1184.901742 0)scale(0.996264)" xlink:href="#CMR17-104"/>
      <use transform="translate(1235.797112 0)scale(0.996264)" xlink:href="#CMR17-101"/>
      <use transform="translate(1276.282772 0)scale(0.996264)" xlink:href="#CMR17-110"/>
      <use transform="translate(1324.575688 0)scale(0.996264)" xlink:href="#CMR17-116"/>
      <use transform="translate(1359.856456 0)scale(0.996264)" xlink:href="#CMR17-105"/>
      <use transform="translate(1384.727514 0)scale(0.996264)" xlink:href="#CMR17-99"/>
      <use transform="translate(1425.213175 0)scale(0.996264)" xlink:href="#CMR17-97"/>
      <use transform="translate(1470.903652 0)scale(0.996264)" xlink:href="#CMR17-116"/>
      <use transform="translate(1506.18442 0)scale(0.996264)" xlink:href="#CMR17-105"/>
      <use transform="translate(1531.055478 0)scale(0.996264)" xlink:href="#CMR17-111"/>
      <use transform="translate(1576.745955 0)scale(0.996264)" xlink:href="#CMR17-110"/>
     </g>
    </g>
    <g id="line2d_34">
     <path d="M 129.219841 177.907148 
L 163.219841 177.907148 
" style="fill:none;stroke:#8172b3;stroke-linecap:round;stroke-width:2;"/>
    </g>
    <g id="line2d_35">
     <g>
      <use style="fill:#8172b3;stroke:#8172b3;" x="146.219841" xlink:href="#m354e4ae849" y="177.907148"/>
     </g>
    </g>
    <g id="text_27">
     <!-- 1000 resources, with server authentication -->
     <g style="fill:#262626;" transform="translate(176.819841 183.857148)scale(0.17 -0.17)">
      <use transform="scale(0.996264)" xlink:href="#CMR17-49"/>
      <use transform="translate(45.690477 0)scale(0.996264)" xlink:href="#CMR17-48"/>
      <use transform="translate(91.380954 0)scale(0.996264)" xlink:href="#CMR17-48"/>
      <use transform="translate(137.071431 0)scale(0.996264)" xlink:href="#CMR17-48"/>
      <use transform="translate(212.837875 0)scale(0.996264)" xlink:href="#CMR17-114"/>
      <use transform="translate(248.118643 0)scale(0.996264)" xlink:href="#CMR17-101"/>
      <use transform="translate(288.604303 0)scale(0.996264)" xlink:href="#CMR17-115"/>
      <use transform="translate(324.405641 0)scale(0.996264)" xlink:href="#CMR17-111"/>
      <use transform="translate(370.096118 0)scale(0.996264)" xlink:href="#CMR17-117"/>
      <use transform="translate(420.991488 0)scale(0.996264)" xlink:href="#CMR17-114"/>
      <use transform="translate(456.272255 0)scale(0.996264)" xlink:href="#CMR17-99"/>
      <use transform="translate(496.757916 0)scale(0.996264)" xlink:href="#CMR17-101"/>
      <use transform="translate(537.243576 0)scale(0.996264)" xlink:href="#CMR17-115"/>
      <use transform="translate(573.044914 0)scale(0.996264)" xlink:href="#CMR17-44"/>
      <use transform="translate(627.991939 0)scale(0.996264)" xlink:href="#CMR17-119"/>
      <use transform="translate(694.501819 0)scale(0.996264)" xlink:href="#CMR17-105"/>
      <use transform="translate(719.372878 0)scale(0.996264)" xlink:href="#CMR17-116"/>
      <use transform="translate(754.653646 0)scale(0.996264)" xlink:href="#CMR17-104"/>
      <use transform="translate(835.624982 0)scale(0.996264)" xlink:href="#CMR17-115"/>
      <use transform="translate(871.426319 0)scale(0.996264)" xlink:href="#CMR17-101"/>
      <use transform="translate(911.91198 0)scale(0.996264)" xlink:href="#CMR17-114"/>
      <use transform="translate(947.192748 0)scale(0.996264)" xlink:href="#CMR17-118"/>
      <use transform="translate(992.88321 0)scale(0.996264)" xlink:href="#CMR17-101"/>
      <use transform="translate(1033.36887 0)scale(0.996264)" xlink:href="#CMR17-114"/>
      <use transform="translate(1098.725604 0)scale(0.996264)" xlink:href="#CMR17-97"/>
      <use transform="translate(1144.416081 0)scale(0.996264)" xlink:href="#CMR17-117"/>
      <use transform="translate(1195.311451 0)scale(0.996264)" xlink:href="#CMR17-116"/>
      <use transform="translate(1230.592219 0)scale(0.996264)" xlink:href="#CMR17-104"/>
      <use transform="translate(1281.487589 0)scale(0.996264)" xlink:href="#CMR17-101"/>
      <use transform="translate(1321.973249 0)scale(0.996264)" xlink:href="#CMR17-110"/>
      <use transform="translate(1370.266165 0)scale(0.996264)" xlink:href="#CMR17-116"/>
      <use transform="translate(1405.546933 0)scale(0.996264)" xlink:href="#CMR17-105"/>
      <use transform="translate(1430.417991 0)scale(0.996264)" xlink:href="#CMR17-99"/>
      <use transform="translate(1470.903652 0)scale(0.996264)" xlink:href="#CMR17-97"/>
      <use transform="translate(1516.594129 0)scale(0.996264)" xlink:href="#CMR17-116"/>
      <use transform="translate(1551.874897 0)scale(0.996264)" xlink:href="#CMR17-105"/>
      <use transform="translate(1576.745955 0)scale(0.996264)" xlink:href="#CMR17-111"/>
      <use transform="translate(1622.436432 0)scale(0.996264)" xlink:href="#CMR17-110"/>
     </g>
    </g>
    <g id="line2d_36">
     <path d="M 129.219841 201.601435 
L 163.219841 201.601435 
" style="fill:none;stroke:#937860;stroke-linecap:round;stroke-width:2;"/>
    </g>
    <g id="line2d_37">
     <g>
      <use style="fill:#937860;stroke:#937860;" x="146.219841" xlink:href="#m82b9baae1a" y="201.601435"/>
     </g>
    </g>
    <g id="text_28">
     <!-- 10000 resources, with server authentication -->
     <g style="fill:#262626;" transform="translate(176.819841 207.551435)scale(0.17 -0.17)">
      <use transform="scale(0.996264)" xlink:href="#CMR17-49"/>
      <use transform="translate(45.690477 0)scale(0.996264)" xlink:href="#CMR17-48"/>
      <use transform="translate(91.380954 0)scale(0.996264)" xlink:href="#CMR17-48"/>
      <use transform="translate(137.071431 0)scale(0.996264)" xlink:href="#CMR17-48"/>
      <use transform="translate(182.761908 0)scale(0.996264)" xlink:href="#CMR17-48"/>
      <use transform="translate(258.528352 0)scale(0.996264)" xlink:href="#CMR17-114"/>
      <use transform="translate(293.80912 0)scale(0.996264)" xlink:href="#CMR17-101"/>
      <use transform="translate(334.29478 0)scale(0.996264)" xlink:href="#CMR17-115"/>
      <use transform="translate(370.096118 0)scale(0.996264)" xlink:href="#CMR17-111"/>
      <use transform="translate(415.786595 0)scale(0.996264)" xlink:href="#CMR17-117"/>
      <use transform="translate(466.681965 0)scale(0.996264)" xlink:href="#CMR17-114"/>
      <use transform="translate(501.962733 0)scale(0.996264)" xlink:href="#CMR17-99"/>
      <use transform="translate(542.448393 0)scale(0.996264)" xlink:href="#CMR17-101"/>
      <use transform="translate(582.934053 0)scale(0.996264)" xlink:href="#CMR17-115"/>
      <use transform="translate(618.735391 0)scale(0.996264)" xlink:href="#CMR17-44"/>
      <use transform="translate(673.682416 0)scale(0.996264)" xlink:href="#CMR17-119"/>
      <use transform="translate(740.192296 0)scale(0.996264)" xlink:href="#CMR17-105"/>
      <use transform="translate(765.063355 0)scale(0.996264)" xlink:href="#CMR17-116"/>
      <use transform="translate(800.344123 0)scale(0.996264)" xlink:href="#CMR17-104"/>
      <use transform="translate(881.315459 0)scale(0.996264)" xlink:href="#CMR17-115"/>
      <use transform="translate(917.116797 0)scale(0.996264)" xlink:href="#CMR17-101"/>
      <use transform="translate(957.602457 0)scale(0.996264)" xlink:href="#CMR17-114"/>
      <use transform="translate(992.883225 0)scale(0.996264)" xlink:href="#CMR17-118"/>
      <use transform="translate(1038.573687 0)scale(0.996264)" xlink:href="#CMR17-101"/>
      <use transform="translate(1079.059347 0)scale(0.996264)" xlink:href="#CMR17-114"/>
      <use transform="translate(1144.416081 0)scale(0.996264)" xlink:href="#CMR17-97"/>
      <use transform="translate(1190.106558 0)scale(0.996264)" xlink:href="#CMR17-117"/>
      <use transform="translate(1241.001928 0)scale(0.996264)" xlink:href="#CMR17-116"/>
      <use transform="translate(1276.282696 0)scale(0.996264)" xlink:href="#CMR17-104"/>
      <use transform="translate(1327.178066 0)scale(0.996264)" xlink:href="#CMR17-101"/>
      <use transform="translate(1367.663726 0)scale(0.996264)" xlink:href="#CMR17-110"/>
      <use transform="translate(1415.956642 0)scale(0.996264)" xlink:href="#CMR17-116"/>
      <use transform="translate(1451.23741 0)scale(0.996264)" xlink:href="#CMR17-105"/>
      <use transform="translate(1476.108468 0)scale(0.996264)" xlink:href="#CMR17-99"/>
      <use transform="translate(1516.594129 0)scale(0.996264)" xlink:href="#CMR17-97"/>
      <use transform="translate(1562.284606 0)scale(0.996264)" xlink:href="#CMR17-116"/>
      <use transform="translate(1597.565374 0)scale(0.996264)" xlink:href="#CMR17-105"/>
      <use transform="translate(1622.436432 0)scale(0.996264)" xlink:href="#CMR17-111"/>
      <use transform="translate(1668.126909 0)scale(0.996264)" xlink:href="#CMR17-110"/>
     </g>
    </g>
   </g>
  </g>
 </g>
 <defs>
  <clipPath id="p8efd930ab2">
   <rect height="337.8025" width="529.106925" x="113.919841" y="61.88"/>
  </clipPath>
 </defs>
</svg>
